<?xml version="1.0" encoding="utf-8"?>
<!-- Generator: Adobe Illustrator 16.0.4, SVG Export Plug-In . SVG Version: 6.00 Build 0)  -->
<!DOCTYPE svg PUBLIC "-//W3C//DTD SVG 1.1//EN" "http://www.w3.org/Graphics/SVG/1.1/DTD/svg11.dtd">
<svg version="1.1" id="Layer_1" xmlns="http://www.w3.org/2000/svg" xmlns:xlink="http://www.w3.org/1999/xlink" x="0px" y="0px"
	 width="70px" height="70px" viewBox="0 0 70 70" enable-background="new 0 0 70 70" xml:space="preserve">
<polygon opacity="0.7" fill="#68BF67" points="1.618,67.671 1.618,2.312 68.382,2.312 68.382,5.488 4.794,5.488 4.794,67.671 "/>
<polygon opacity="0.7" fill="#1E8542" points="1.618,67.688 1.618,64.273 64.969,64.273 64.969,2.312 68.38,2.312 68.38,67.688 "/>
<linearGradient id="SVGID_1_" gradientUnits="userSpaceOnUse" x1="212.3213" y1="1149.3447" x2="214.0869" y2="1100.5957" gradientTransform="matrix(1 0 0 1 -178 -1093)">
	<stop  offset="0" style="stop-color:#1E8542"/>
	<stop  offset="0.2122" style="stop-color:#319146"/>
	<stop  offset="0.7209" style="stop-color:#52AD53"/>
	<stop  offset="1" style="stop-color:#5DBC5A"/>
</linearGradient>
<rect x="6.296" y="6.927" opacity="0.7" fill="url(#SVGID_1_)" width="57.604" height="55.896"/>
<linearGradient id="SVGID_2_" gradientUnits="userSpaceOnUse" x1="213.4238" y1="1128.9492" x2="213.0709" y2="1095.0369" gradientTransform="matrix(1 0 0 1 -178 -1093)">
	<stop  offset="0" style="stop-color:#5DBC5A"/>
	<stop  offset="1" style="stop-color:#289C48"/>
</linearGradient>
<path fill="url(#SVGID_2_)" d="M63.882,7.789L6.656,7.793v26.484c0.809,0.375,15.095,6.747,30.31-0.014
	c0,0,20.716-5.666,26.917,1.131L63.882,7.789L63.882,7.789z"/>
<path opacity="0.3" fill="#FFFFFF" enable-background="new    " d="M11.526,41.379c0,0,9.28-6.824,10.349-7.787
	c0,0,5.546,11.309,6.504,12.695c0,0,9.6-24.215,26.668-34.455c0,0-1.066,8.498,3.203,16.639c0,0-15.357,9.816-29.229,30.616
	C29.021,59.088,20.06,46.502,11.526,41.379z"/>
<path opacity="0.7" fill="#2A9A47" d="M4.706,64.273V5.334h60.26v58.939H4.706z M61.76,61.229l0.096-52.709H7.887v52.709h54.416
	H61.76z"/>
</svg>
