<?xml version="1.0" encoding="utf-8"?>
<!-- Generator: Adobe Illustrator 16.0.4, SVG Export Plug-In . SVG Version: 6.00 Build 0)  -->
<!DOCTYPE svg PUBLIC "-//W3C//DTD SVG 1.1//EN" "http://www.w3.org/Graphics/SVG/1.1/DTD/svg11.dtd">
<svg version="1.1" id="Layer_1" xmlns="http://www.w3.org/2000/svg" xmlns:xlink="http://www.w3.org/1999/xlink" x="0px" y="0px"
	 width="70px" height="70px" viewBox="0 0 70 70" enable-background="new 0 0 70 70" xml:space="preserve">
<g>
	<polygon fill="#68BF67" points="1.618,67.671 1.618,2.312 68.382,2.312 68.382,5.488 4.794,5.488 4.794,67.671 	"/>
</g>
<g>
	<polygon fill="#1E8542" points="1.618,67.688 1.618,64.274 64.969,64.274 64.969,2.312 68.38,2.312 68.38,67.688 	"/>
</g>
<linearGradient id="SVGID_1_" gradientUnits="userSpaceOnUse" x1="212.3213" y1="3.6538" x2="214.0869" y2="52.4024" gradientTransform="matrix(1 0 0 -1 -178 60)">
	<stop  offset="0" style="stop-color:#1E8542"/>
	<stop  offset="0.2122" style="stop-color:#319146"/>
	<stop  offset="0.7209" style="stop-color:#52AD53"/>
	<stop  offset="1" style="stop-color:#5DBC5A"/>
</linearGradient>
<rect x="6.296" y="6.927" fill="url(#SVGID_1_)" width="57.605" height="55.896"/>
<linearGradient id="SVGID_2_" gradientUnits="userSpaceOnUse" x1="213.4248" y1="24.0518" x2="213.0719" y2="57.9635" gradientTransform="matrix(1 0 0 -1 -178 60)">
	<stop  offset="0" style="stop-color:#5DBC5A"/>
	<stop  offset="1" style="stop-color:#289C48"/>
</linearGradient>
<path fill="url(#SVGID_2_)" d="M63.882,7.789L6.656,7.793v26.484c0.809,0.375,15.095,6.746,30.31-0.014
	c0,0,20.716-5.666,26.917,1.131V7.789z"/>
<g>
	<path fill="#FFFFFF" d="M11.526,41.379c0,0,9.28-6.824,10.349-7.787c0,0,5.546,11.309,6.504,12.695c0,0,9.6-24.215,26.668-34.455
		c0,0-1.066,8.498,3.203,16.639c0,0-15.358,9.816-29.229,30.616C29.021,59.088,20.06,46.502,11.526,41.379z"/>
</g>
<g>
	<path fill="#2A9A47" d="M4.706,64.274V5.334h60.26v58.94H4.706z M61.76,61.229l0.095-52.712H7.887v52.712h54.416H61.76z"/>
</g>
</svg>
