<?xml version="1.0" encoding="utf-8"?>
<!-- Generator: Adobe Illustrator 16.0.4, SVG Export Plug-In . SVG Version: 6.00 Build 0)  -->
<!DOCTYPE svg PUBLIC "-//W3C//DTD SVG 1.1//EN" "http://www.w3.org/Graphics/SVG/1.1/DTD/svg11.dtd">
<svg version="1.1" id="Layer_1" xmlns="http://www.w3.org/2000/svg" xmlns:xlink="http://www.w3.org/1999/xlink" x="0px" y="0px"
	 width="256px" height="256px" viewBox="0 0 256 256" enable-background="new 0 0 256 256" xml:space="preserve">
<line fill="none" stroke="#231F20" stroke-miterlimit="10" x1="0" y1="0" x2="33.73" y2="33.731"/>
<line fill="none" stroke="#231F20" stroke-miterlimit="10" x1="33.73" y1="33.731" x2="33.73" y2="45.308"/>
<line fill="none" stroke="#231F20" stroke-miterlimit="10" x1="33.73" y1="33.73" x2="45.307" y2="33.73"/>
<line fill="none" stroke="#231F20" stroke-miterlimit="10" x1="0" y1="256" x2="33.731" y2="222.27"/>
<line fill="none" stroke="#231F20" stroke-miterlimit="10" x1="33.731" y1="222.27" x2="45.308" y2="222.27"/>
<line fill="none" stroke="#231F20" stroke-miterlimit="10" x1="33.73" y1="222.27" x2="33.73" y2="210.693"/>
<line fill="none" stroke="#231F20" stroke-miterlimit="10" x1="256" y1="256" x2="222.27" y2="222.27"/>
<line fill="none" stroke="#231F20" stroke-miterlimit="10" x1="222.27" y1="222.27" x2="222.27" y2="210.692"/>
<line fill="none" stroke="#231F20" stroke-miterlimit="10" x1="222.27" y1="222.27" x2="210.693" y2="222.27"/>
<line fill="none" stroke="#231F20" stroke-miterlimit="10" x1="256" y1="0.001" x2="222.27" y2="33.731"/>
<line fill="none" stroke="#231F20" stroke-miterlimit="10" x1="222.27" y1="33.731" x2="210.692" y2="33.731"/>
<line fill="none" stroke="#231F20" stroke-miterlimit="10" x1="222.27" y1="33.731" x2="222.27" y2="45.308"/>
<circle fill="#FFF200" stroke="#231F20" stroke-width="5" stroke-miterlimit="10" cx="128" cy="128" r="101.536" transform="matrix(1 0 0 1 10 10)"/>
<circle fill="#FFFFFF" stroke="#231F20" stroke-width="3" stroke-miterlimit="10" cx="94.077" cy="86.08" r="15.385"/>
<circle fill="#FFFFFF" stroke="#231F20" stroke-width="3" stroke-miterlimit="10" cx="162.154" cy="92.618" r="31.153"/>
<path fill="none" stroke="#231F20" stroke-width="3" stroke-linecap="round" stroke-miterlimit="10" d="M53.692,133.387
	c14.231,56.154,34.231,46.538,65.385,50s49.615,25.385,82.308-47.308"/>
</svg>
