<?xml version="1.0" encoding="utf-8"?>
<!-- Generator: Adobe Illustrator 16.0.4, SVG Export Plug-In . SVG Version: 6.00 Build 0)  -->
<!DOCTYPE svg PUBLIC "-//W3C//DTD SVG 1.1//EN" "http://www.w3.org/Graphics/SVG/1.1/DTD/svg11.dtd">
<svg version="1.1" id="Layer_1" xmlns="http://www.w3.org/2000/svg" xmlns:xlink="http://www.w3.org/1999/xlink" x="0px" y="0px"
	 width="128px" height="128px" viewBox="0 0 128 128" enable-background="new 0 0 128 128" xml:space="preserve">
<path fill="#9B9DA1" d="M70.22,11.814v9.922c17.927,1.666,32.896,9.553,32.896,26.44H81.617C81.118,41.053,76.6,37.715,70.22,36.373
	v19.902c1.957,0.412,4.021,0.85,6.309,1.336c7.361,1.515,29.991,5.353,29.991,24.225c0,14.16-12.567,24.983-36.3,26.474v7.811
	H57.791v-7.923c-19.653-1.673-36.549-10.849-36.302-29.276h21.507c0,8.621,6.369,13.131,14.795,14.708V70.781
	c-0.921-0.195-1.849-0.388-2.771-0.594C40.026,66.924,24.89,62.151,24.89,46.546c0-15.49,16.213-23.615,32.901-24.943v-9.789H70.22
	 M57.791,53.47V35.854c-5.882,0.78-11.396,3.452-11.396,9.179C46.395,49.349,48.613,51.13,57.791,53.47 M70.22,94.054
	c7.065-0.728,14.791-3.266,14.791-10.124c0-5.787-6.322-8.465-14.791-10.52V94.054 M70.22,4H57.791c-4.316,0-7.814,3.5-7.814,7.814
	v2.949c-19.951,3.733-32.897,15.941-32.897,31.783c0,12.692,7.224,20.065,15.707,24.564H21.489c-4.273,0-7.752,3.435-7.812,7.711
	c-0.254,18.737,13.472,32.206,36.299,36.234v1.064c0,4.315,3.499,7.812,7.814,7.812H70.22c4.315,0,7.807-3.497,7.807-7.812v-0.77
	c26.605-3.968,36.3-19.491,36.3-33.515c0-13.649-8.221-21.372-17.028-25.848h5.817c4.316,0,7.816-3.495,7.816-7.812
	c0-17.225-12.151-29.314-32.905-33.235v-3.127C78.026,7.5,74.535,4,70.22,4"/>
<path fill="#EFEFEF" d="M70.22,11.809v9.927c17.927,1.666,32.896,9.553,32.896,26.44H81.619C81.118,41.053,76.6,37.71,70.22,36.373
	v19.905c1.957,0.414,4.021,0.852,6.309,1.333c7.361,1.511,29.991,5.356,29.991,24.225c0,14.16-12.567,24.987-36.3,26.474v7.811
	H57.791v-7.923c-19.653-1.673-36.549-10.849-36.302-29.276h21.507c0,8.621,6.369,13.131,14.795,14.708V70.781
	c-0.924-0.191-1.849-0.391-2.771-0.594C40.026,66.932,24.89,62.151,24.89,46.546c0-15.49,16.209-23.615,32.901-24.943v-9.794H70.22
	 M57.791,53.473V35.854c-5.882,0.78-11.396,3.452-11.396,9.179C46.395,49.349,48.613,51.13,57.791,53.473 M70.22,94.054
	c7.065-0.728,14.791-3.266,14.791-10.124c0-5.787-6.322-8.468-14.791-10.52V94.054 M70.22,4.957H57.791
	c-3.788,0-6.86,3.07-6.86,6.853v3.754C31.01,19.035,18.036,30.991,18.036,46.546c0,14.038,9.252,21.375,19.027,25.522H21.489
	c-3.75,0-6.804,3.011-6.854,6.764c-0.25,18.44,13.492,31.641,36.296,35.414v1.874c0,3.79,3.072,6.857,6.86,6.857H70.22
	c3.784,0,6.856-3.067,6.856-6.857v-1.604c26.62-3.682,36.301-18.922,36.301-32.681c0-15.186-10.624-22.822-20.536-26.8h10.274
	c3.784,0,6.859-3.072,6.859-6.859c0-16.93-12.169-28.759-32.898-32.436v-3.932C77.076,8.026,74.004,4.957,70.22,4.957"/>
<g>
	<defs>
		<path id="SVGID_1_" d="M70.22,73.41c8.469,2.055,14.791,4.732,14.791,10.52c0,6.858-7.718,9.396-14.791,10.124V73.41z
			 M46.395,45.033c0-5.727,5.514-8.404,11.396-9.179V53.47C48.613,51.13,46.395,49.348,46.395,45.033 M57.791,11.814v9.789
			C41.103,22.931,24.89,31.056,24.89,46.55c0,15.602,15.136,20.378,30.129,23.638c0.923,0.206,1.851,0.402,2.771,0.591v22.851
			c-8.426-1.581-14.795-6.083-14.795-14.708H21.489c-0.247,18.425,16.649,27.604,36.302,29.271v7.928H70.22v-7.811
			c23.732-1.486,36.3-12.322,36.3-26.474c0-18.872-22.63-22.71-29.991-24.225c-2.288-0.487-4.352-0.919-6.309-1.336V36.373
			c6.38,1.333,10.898,4.68,11.397,11.803h21.498c0-16.887-14.969-24.774-32.896-26.44v-9.922H57.791z"/>
	</defs>
	<clipPath id="SVGID_2_">
		<use xlink:href="#SVGID_1_"  overflow="visible"/>
	</clipPath>
	
		<linearGradient id="SVGID_3_" gradientUnits="userSpaceOnUse" x1="-239.4287" y1="457.5723" x2="-236.9229" y2="457.5723" gradientTransform="matrix(0 41.6211 41.6211 0 -18980.7812 9977.0938)">
		<stop  offset="0" style="stop-color:#8BC53F"/>
		<stop  offset="0.0883" style="stop-color:#6FBB40"/>
		<stop  offset="0.2921" style="stop-color:#33A543"/>
		<stop  offset="0.4424" style="stop-color:#0E9844"/>
		<stop  offset="0.5216" style="stop-color:#009345"/>
		<stop  offset="1" style="stop-color:#006838"/>
	</linearGradient>
	<rect x="21.242" y="11.814" clip-path="url(#SVGID_2_)" fill="url(#SVGID_3_)" width="85.277" height="104.306"/>
</g>
<path fill="none" stroke="#59595C" stroke-width="0.4523" stroke-linecap="round" stroke-linejoin="round" d="M106.52,81.836
	c0-18.869-22.63-22.713-29.991-24.225c-2.288-0.481-4.352-0.919-6.309-1.333V36.368c6.38,1.348,10.898,4.689,11.397,11.809h21.498
	c0-16.887-14.969-24.774-32.896-26.44v-9.922H57.791v9.789C41.103,22.931,24.89,31.056,24.89,46.546
	c0,15.605,15.136,20.386,30.129,23.642c0.923,0.206,1.851,0.402,2.771,0.591v22.851c-8.426-1.577-14.795-6.087-14.795-14.708H21.489
	c-0.247,18.425,16.649,27.605,36.302,29.276v7.923H70.22v-7.811C93.952,106.823,106.52,95.987,106.52,81.836z M46.395,45.028
	c0-5.722,5.514-8.399,11.396-9.174v17.619C48.613,51.13,46.395,49.349,46.395,45.028z M70.22,94.054V73.41
	c8.469,2.052,14.791,4.729,14.791,10.52C85.011,90.788,77.285,93.326,70.22,94.054z"/>
<g>
	<defs>
		<path id="SVGID_4_" d="M57.791,4.066c-4.316,0-7.814,3.5-7.814,7.814v2.955C30.025,18.562,17.079,30.77,17.079,46.617
			c0,12.692,7.224,20.065,15.707,24.561H21.489c-4.273,0-7.752,3.438-7.811,7.711c-0.252,18.734,13.471,32.201,36.298,36.232v1.068
			c0,4.315,3.499,7.811,7.814,7.811H70.22c4.315,0,7.807-3.495,7.807-7.811v-0.78c26.6-3.959,36.3-19.476,36.3-33.507
			c0-13.648-8.221-21.372-17.028-25.843h5.817c4.316,0,7.816-3.5,7.816-7.812c0-17.226-12.153-29.319-32.905-33.235V11.88
			c0-4.314-3.491-7.814-7.807-7.814H57.791z"/>
	</defs>
	<clipPath id="SVGID_5_">
		<use xlink:href="#SVGID_4_"  overflow="visible"/>
	</clipPath>
	<g clip-path="url(#SVGID_5_)">
		<g>
			<defs>
				<rect id="SVGID_6_" x="-15.358" y="2.893" width="158.81" height="67.112"/>
			</defs>
			<clipPath id="SVGID_7_">
				<use xlink:href="#SVGID_6_"  overflow="visible"/>
			</clipPath>
			<g clip-path="url(#SVGID_7_)">
				<defs>
					<path id="SVGID_8_" d="M143.452,26.597C134.753-1.456,82.382,2.948,81.196,3.065H54.858c0,0-56.029-5.192-63.017,25.295
						l-7.199,31.851c0,0,5.061,4.867,33.024,10.421c13.55,0.983,40.592,1.768,62.176-8.152
						C102.905,51.874,125.064,34.219,143.452,26.597"/>
				</defs>
				<clipPath id="SVGID_9_">
					<use xlink:href="#SVGID_8_"  overflow="visible"/>
				</clipPath>
				
					<linearGradient id="SVGID_10_" gradientUnits="userSpaceOnUse" x1="-241.894" y1="458.3027" x2="-239.3233" y2="458.3027" gradientTransform="matrix(16.0254 71.5802 71.5802 -16.0254 -28896.5625 24553.0625)">
					<stop  offset="0" style="stop-color:#FFFFFF"/>
					<stop  offset="0.0862" style="stop-color:#F4F4F4"/>
					<stop  offset="0.2377" style="stop-color:#D7D7D7"/>
					<stop  offset="0.4365" style="stop-color:#A7A7A7"/>
					<stop  offset="0.6752" style="stop-color:#656565"/>
					<stop  offset="0.9447" style="stop-color:#121212"/>
					<stop  offset="1" style="stop-color:#000000"/>
				</linearGradient>
				<polygon clip-path="url(#SVGID_9_)" fill="url(#SVGID_10_)" points="135.872,-36.666 159.027,68.842 -7.774,106.938 
					-30.935,1.43 				"/>
			</g>
		</g>
	</g>
</g>
</svg>
