<?xml version="1.0" encoding="utf-8"?>
<!-- Generator: Adobe Illustrator 16.0.4, SVG Export Plug-In . SVG Version: 6.00 Build 0)  -->
<!DOCTYPE svg PUBLIC "-//W3C//DTD SVG 1.1//EN" "http://www.w3.org/Graphics/SVG/1.1/DTD/svg11.dtd">
<svg version="1.1" id="Layer_1" xmlns="http://www.w3.org/2000/svg" xmlns:xlink="http://www.w3.org/1999/xlink" x="0px" y="0px"
	 width="256px" height="256px" viewBox="0 0 256 256" enable-background="new 0 0 256 256" xml:space="preserve">
<linearGradient id="SVGID_1_" gradientUnits="userSpaceOnUse" x1="31.145" y1="66.1064" x2="108.179" y2="16.08">
	<stop  offset="0" style="stop-color:#FFFFFF"/>
	<stop  offset="1" style="stop-color:#000000"/>
</linearGradient>
<path fill="url(#SVGID_1_)" stroke="#231F20" stroke-miterlimit="10" d="M27.389,9.097c-2.655,1.306-6.042,2.521-8.245,5.175
	c-3.82,4.605-4.938,12.463-5.608,18.22c-1.367,11.756,6.521,12.842,16.005,16.98c5.056,2.207,9.367,5.666,14.754,7.246
	c5.433,1.594,12.509,1.554,17.488,4.329c6.35,3.539,7.242,11.204,11.243,16.431c5.202,6.798,16.873,9.678,24.66,5.566
	c4.558-2.406,9.202-8.277,12.747-12.073c7.157-7.665,9.603-14.489,9.409-24.538c-0.271-14.085-3.212-23.741-16.999-27.082
	c-7.56-1.832-15.5-0.903-23.239-1.008c-7.551-0.103-15.111-1.681-22.287-4.037C50.7,12.133,46.049,9.383,39.055,9.098
	C36.011,8.974,30.142,7.356,27.389,9.097z"/>
<radialGradient id="SVGID_2_" cx="106.4102" cy="132.3555" r="48.3087" gradientUnits="userSpaceOnUse">
	<stop  offset="0" style="stop-color:#D3E700"/>
	<stop  offset="1" style="stop-color:#A100D0"/>
</radialGradient>
<path fill="url(#SVGID_2_)" stroke="#231F20" stroke-miterlimit="10" d="M71.385,96.461c-3.72,2.999-11.007,0.007-15.558,2.643
	c-5.387,3.121-4.817,6.895-4.836,12.68c-0.048,14.545-1.775,35.774,11.755,45.375c18.316,12.995,45.082,19.087,66.759,12.062
	c8.782-2.846,16.187-9.662,22.991-15.723c4.271-3.803,8.613-8.105,9.297-13.898c1.925-16.297-17.607-20.68-30.34-21.551
	c-13.052-0.894-28.785,2.091-36.097-11.191c-1.908-3.467-3.222-6.326-6.651-8.836c-2.418-1.77-4.322-1.942-6.949-2.808
	c-1.536-0.506-3.996-2.328-5.292-2.57C73.802,92.147,70.759,93.366,71.385,96.461z"/>
<linearGradient id="SVGID_3_" gradientUnits="userSpaceOnUse" x1="105.7944" y1="212.29" x2="240.4201" y2="124.8631">
	<stop  offset="0" style="stop-color:#00D02A"/>
	<stop  offset="0.2118" style="stop-color:#CCE700"/>
	<stop  offset="0.6798" style="stop-color:#175AFF"/>
	<stop  offset="1" style="stop-color:#A100D0"/>
</linearGradient>
<path fill="url(#SVGID_3_)" stroke="#231F20" stroke-miterlimit="10" d="M166.77,93.385c2.877,9.196,6.449,17.819,7.197,27.581
	c0.717,9.356,0.496,19.103,0.492,28.498c-0.002,5.606,0.561,11.481-0.409,17.035c-0.524,3.01-1.147,8.713-2.547,11.461
	c-1.565,3.078-7.261,6.419-9.676,8.39c-6.672,5.44-14.806,11.533-23.271,13.871c-6.123,1.69-12.745,1.997-18.993,3.145
	c-1.661,0.305-12.877,1.646-13.854,3.488c-1.41,2.658,2.555,7.838,3.542,9.775c5.626,11.051,12.137,20.146,24.713,23.583
	c13.113,3.585,28.008,2.246,41.477,2.073c16.678-0.213,28.394-20.244,34.916-33.361c5.271-10.604,10.062-22.035,14.021-33.203
	c3.765-10.623,8.539-22.808,8.548-34.119c0.012-13.634,2.664-29.241-7.994-39.392c-6.687-6.367-11.929-7.554-21.111-8.44
	c-7.518-0.725-14.61-3.442-22.086-4.181C174.759,88.899,172.257,90.451,166.77,93.385z"/>
<radialGradient id="SVGID_4_" cx="206.0137" cy="46.6191" r="34.6644" gradientUnits="userSpaceOnUse">
	<stop  offset="0" style="stop-color:#FFFFFF"/>
	<stop  offset="1" style="stop-color:#000000"/>
</radialGradient>
<path fill="url(#SVGID_4_)" stroke="#231F20" stroke-miterlimit="10" d="M202.923,71.846c-2.435,0.755-2.126-0.054-4.61-1.42
	c-5.484-3.014-11.274-6.784-15.563-11.39c-8.276-8.891-9.498-22.38-8.256-34.037c0.427-4.006,1.022-6.307,4.069-8.477
	c5.383-3.829,15.646-4.86,21.979-6.118c3.817-0.758,11.733-1.833,15.351,0.158c5.418,2.98,9.146,12.708,11.602,17.751
	c5.062,10.413,10.127,22.479,10.441,34.218c0.092,3.393-0.248,7.075-2.638,9.729c-1.511,1.679-4.03,2.683-5.813,4.038
	c-2.797,2.123-5.354,5.637-8.771,6.761C212.098,85.895,202.993,80.424,202.923,71.846z"/>
</svg>
