<?xml version="1.0" encoding="utf-8"?>
<!-- Generator: Adobe Illustrator 16.0.4, SVG Export Plug-In . SVG Version: 6.00 Build 0)  -->
<!DOCTYPE svg PUBLIC "-//W3C//DTD SVG 1.1//EN" "http://www.w3.org/Graphics/SVG/1.1/DTD/svg11.dtd">
<svg version="1.1" id="Layer_1" xmlns="http://www.w3.org/2000/svg" xmlns:xlink="http://www.w3.org/1999/xlink" x="0px" y="0px"
	 width="256px" height="256px" viewBox="0 0 256 256" enable-background="new 0 0 256 256" xml:space="preserve">
<linearGradient id="SVGID_1_" gradientUnits="userSpaceOnUse" x1="13.3818" y1="46.6201" x2="119.8535" y2="46.6201">
	<stop  offset="0" style="stop-color:#FFFFFF"/>
	<stop  offset="1" style="stop-color:#000000"/>
</linearGradient>
<path fill="url(#SVGID_1_)" stroke="#231F20" stroke-miterlimit="10" d="M27.389,9.097c-2.655,1.306-6.042,2.521-8.245,5.175
	c-3.82,4.605-4.938,12.463-5.608,18.22c-1.367,11.756,6.521,12.842,16.005,16.98c5.056,2.207,9.367,5.666,14.754,7.246
	c5.433,1.594,12.509,1.554,17.488,4.329c6.35,3.539,7.242,11.204,11.243,16.431c5.202,6.798,16.873,9.678,24.66,5.566
	c4.558-2.406,9.202-8.277,12.747-12.073c7.157-7.665,9.603-14.489,9.409-24.538c-0.271-14.085-3.212-23.741-16.999-27.082
	c-7.56-1.832-15.5-0.903-23.239-1.008c-7.551-0.103-15.111-1.681-22.287-4.037C50.7,12.133,46.049,9.383,39.055,9.098
	C36.011,8.974,30.142,7.356,27.389,9.097z"/>
<linearGradient id="SVGID_2_" gradientUnits="userSpaceOnUse" x1="50.8955" y1="132.3564" x2="161.9258" y2="132.3564">
	<stop  offset="0" style="stop-color:#F2FF2E"/>
	<stop  offset="1" style="stop-color:#E70067"/>
</linearGradient>
<path fill="url(#SVGID_2_)" stroke="#231F20" stroke-miterlimit="10" d="M71.385,96.461c-3.72,2.999-11.007,0.007-15.558,2.643
	c-5.387,3.121-4.817,6.895-4.836,12.68c-0.048,14.545-1.775,35.774,11.755,45.375c18.316,12.996,45.082,19.087,66.759,12.062
	c8.782-2.846,16.187-9.663,22.991-15.723c4.271-3.803,8.613-8.106,9.297-13.899c1.925-16.296-17.607-20.679-30.34-21.55
	c-13.052-0.894-28.785,2.091-36.097-11.191c-1.908-3.467-3.222-6.326-6.651-8.836c-2.418-1.77-4.322-1.942-6.949-2.808
	c-1.536-0.506-3.996-2.328-5.292-2.57C73.802,92.147,70.759,93.366,71.385,96.461z"/>
<radialGradient id="SVGID_3_" cx="169.3184" cy="166.0488" r="70.5522" gradientUnits="userSpaceOnUse">
	<stop  offset="0" style="stop-color:#F2FF2E"/>
	<stop  offset="0.1571" style="stop-color:#0011B9"/>
	<stop  offset="0.6723" style="stop-color:#60B900"/>
	<stop  offset="1" style="stop-color:#E70067"/>
</radialGradient>
<path fill="url(#SVGID_3_)" stroke="#231F20" stroke-miterlimit="10" d="M166.77,93.385c2.876,9.196,6.449,17.819,7.197,27.581
	c0.717,9.356,0.496,19.103,0.492,28.498c-0.002,5.606,0.561,11.482-0.409,17.035c-0.525,3.01-1.148,8.713-2.547,11.461
	c-1.566,3.078-7.261,6.419-9.676,8.39c-6.672,5.44-14.806,11.533-23.271,13.871c-6.123,1.69-12.743,1.997-18.991,3.143
	c-1.661,0.305-12.877,1.646-13.854,3.489c-1.41,2.659,2.555,7.839,3.542,9.776c5.626,11.05,12.137,20.146,24.713,23.583
	c13.113,3.585,28.006,2.246,41.476,2.073c16.677-0.213,28.393-20.244,34.915-33.361c5.272-10.604,10.064-22.035,14.021-33.203
	c3.764-10.623,8.539-22.808,8.548-34.119c0.011-13.634,2.664-29.241-7.994-39.392c-6.687-6.367-11.929-7.554-21.112-8.44
	c-7.517-0.725-14.611-3.442-22.086-4.181C174.759,88.899,172.257,90.451,166.77,93.385z"/>
<radialGradient id="SVGID_4_" cx="206.0127" cy="46.6206" r="34.6645" gradientUnits="userSpaceOnUse">
	<stop  offset="0" style="stop-color:#FFFFFF"/>
	<stop  offset="1" style="stop-color:#000000"/>
</radialGradient>
<path fill="url(#SVGID_4_)" stroke="#231F20" stroke-miterlimit="10" d="M202.923,71.846c-2.435,0.755-2.126-0.054-4.611-1.42
	c-5.485-3.014-11.275-6.784-15.564-11.39c-8.278-8.891-9.498-22.38-8.256-34.037c0.427-4.006,1.023-6.307,4.071-8.477
	c5.382-3.829,15.646-4.86,21.979-6.118c3.818-0.758,11.733-1.833,15.351,0.158c5.418,2.98,9.146,12.708,11.6,17.751
	c5.062,10.413,10.127,22.479,10.443,34.218c0.091,3.393-0.249,7.075-2.638,9.729c-1.511,1.679-4.03,2.683-5.814,4.038
	c-2.797,2.123-5.354,5.637-8.772,6.761C212.098,85.895,202.993,80.424,202.923,71.846z"/>
</svg>
