<?xml version="1.0" encoding="utf-8"?>
<!-- Generator: Adobe Illustrator 16.0.4, SVG Export Plug-In . SVG Version: 6.00 Build 0)  -->
<!DOCTYPE svg PUBLIC "-//W3C//DTD SVG 1.1//EN" "http://www.w3.org/Graphics/SVG/1.1/DTD/svg11.dtd">
<svg version="1.1" id="Layer_1" xmlns="http://www.w3.org/2000/svg" xmlns:xlink="http://www.w3.org/1999/xlink" x="0px" y="0px"
	 width="128px" height="128px" viewBox="0 0 128 128" enable-background="new 0 0 128 128" xml:space="preserve">
<g>
	<g>
		<g>
			<path fill="#BBBCBE" d="M77.391,68.519c2.414-1.792,4.068-4.11,4.424-5.032c0.798-2.008-2.769-4.749-2.769-4.749l-2.192-1.868
				l18.883-23.512l9.546-6.109l7.528-12.432l-6.77-5.774l-11.098,9.376l-4.542,10.397L71.542,52.328l-2.188-1.868
				c0,0-3.26-3.087-5.117-1.994c-0.564,0.328-1.62,1.29-2.665,2.65l-2.133-2.347l-2.228,2.135l-0.786-0.853l1.914-1.841
				c-1.404-1.536-2.487-2.733-3.363-3.913c-0.974-1.308-1.701-2.677-2.049-4.212c-0.677-3.116-0.202-6.261,0.203-12.833
				c0.208-3.854-1.317-7.68-4.036-10.512c-1.785-1.863-4.063-3.301-6.669-4.063c-5.083-1.453-8.649-0.802-12.28,0.709l10.305,8.745
				c0.639,0.551,0.947,1.402,0.791,2.224L39.148,35.67c-0.17,0.929-0.882,1.674-1.799,1.877L26.51,40.033
				c-0.726,0.167-1.495-0.029-2.055-0.508l-10.272-8.732C13.52,37.7,15.69,43.824,19.266,47.55c1.684,1.756,3.659,2.986,5.812,3.619
				c2.717,0.787,4.834,0.595,7.116,0.279c2.244-0.29,4.71-0.827,7.559-0.018c1.068,0.35,1.705,0.845,2.548,1.444
				c0.811,0.606,1.66,1.315,2.44,1.999c1.569,1.366,2.893,2.646,2.909,2.663l0.098,0.093l0.346,0.39l1.93-1.852l0.784,0.859
				l-1.625,1.549l6.129,6.737c-0.885,0.941-2.021,1.83-3.568,2.645c-6.543,3.43-10.546,4.978-15.501,10.785L18.897,99.046
				c0,0-6.737,7.873,0.766,14.247l5.091,4.35c7.459,6.41,14.196-1.472,14.196-1.472l17.341-20.303
				c4.963-5.812,5.861-10.002,8.228-17.005c0.298-0.873,0.632-1.64,0.996-2.32l34.366,37.783l0.04,0.057l0.054,0.055
				c2.652,2.775,7.084,2.922,9.9,0.333l0.116-0.115c2.786-2.665,2.953-7.078,0.334-9.921L77.391,68.519z M109.342,113.264
				c-2.042,2.405-5.652,2.695-8.061,0.651c-2.405-2.052-2.703-5.658-0.649-8.062c2.04-2.407,5.651-2.7,8.052-0.658
				C111.093,107.241,111.388,110.854,109.342,113.264z"/>
			<path fill="#A6A8AB" d="M22.255,120.566l-5.088-4.35c-3.459-2.855-4.954-6.681-4.894-9.902l0,0
				c0.12-5.815,3.521-9.443,3.706-9.764l0,0L33.32,76.245c5.326-6.294,10.19-8.342,16.272-11.505l0,0l-1.38-1.522l-2.971-2.619
				l-0.283-0.321l-0.042-0.042c-0.038-0.033-0.089-0.082-0.15-0.136l0,0c-0.149-0.14-0.357-0.337-0.606-0.575l0,0
				c-0.515-0.475-1.206-1.112-1.95-1.759l0,0c-0.742-0.649-1.518-1.302-2.138-1.758l0,0c-0.956-0.688-1.083-0.774-1.382-0.887l0,0
				c-0.718-0.208-1.384-0.274-2.108-0.274l0,0c-1.128-0.011-2.373,0.203-3.878,0.412l0,0c-1.132,0.156-2.373,0.307-3.764,0.307l0,0
				c-1.504,0-3.173-0.183-4.954-0.711l0,0c-2.837-0.833-5.396-2.456-7.493-4.647l0,0c-3.936-4.123-6.271-10.168-6.276-16.955l0,0
				c0-0.934,0.053-1.877,0.142-2.83l0,0l0.706-7.333l15.314,13.027l9.167-2.102l1.759-9.509l-14.433-12.24l5.785-2.418
				c2.489-1.058,5.273-1.839,8.415-1.831l0,0c2.008,0,4.134,0.309,6.425,0.96l0,0c3.292,0.963,6.147,2.779,8.362,5.101l0,0
				c3.207,3.341,5.131,7.791,5.131,12.485l0,0c0,0.296,0,0.586-0.021,0.936l0,0c-0.269,4.233-0.541,7.051-0.541,9.008l0,0
				c0.006,1.125,0.087,1.944,0.25,2.723l0,0c0.201,0.898,0.624,1.752,1.39,2.773l0,0c0.346,0.475,0.765,0.976,1.262,1.549l0,0
				l2.367,1.992c0.18-0.125,0.352-0.243,0.537-0.359l0,0c0.994-0.609,2.071-0.806,2.917-0.802l0,0
				c2.45,0.092,3.825,1.076,4.963,1.777l0,0c0.343,0.238,0.65,0.472,0.904,0.671l0,0l16.057-20.029l4.693-10.75L106.057,4
				l11.728,10.011l-9.676,15.999l-9.78,6.247L82.195,56.36c0.319,0.301,0.718,0.677,1.136,1.137l0,0
				c0.91,1.119,2.292,2.463,2.443,5.362l0,0c0,0.637-0.109,1.337-0.376,2.019l0,0c-0.552,1.255-1.382,2.547-2.601,3.871l0,0
				l30.354,33.387c1.915,2.084,2.877,4.748,2.877,7.38l0,0c0,2.875-1.144,5.777-3.45,7.987l0,0l-0.109,0.094
				c-2.089,1.916-4.748,2.868-7.371,2.868l0,0c-2.866,0-5.76-1.138-7.978-3.444l0,0l-0.125-0.142l0.034,0.036l-30.095-33.1
				c-1.656,5.019-3.29,9.397-7.718,14.549l0,0l-17.352,20.303c-0.312,0.222-4.045,5.13-10.963,5.333l0,0c-0.033,0-0.062,0-0.087,0
				l0,0C28.042,124,24.943,122.913,22.255,120.566L22.255,120.566z M60.539,65.348l-2.429,2.592
				c-1.179,1.267-2.703,2.431-4.589,3.42l0,0c-6.822,3.593-9.882,4.678-14.357,9.874l0,0L21.82,101.542
				c0.007,0.002-0.04,0.046-0.221,0.294l0,0c-0.184,0.26-0.439,0.653-0.691,1.134l0,0c-0.515,0.96-0.954,2.232-0.941,3.345l0,0
				c0.053,1.239,0.276,2.351,2.193,4.056l0,0l5.095,4.349c1.587,1.335,2.65,1.562,3.648,1.581l0,0
				c2.062,0.137,4.692-2.065,5.084-2.586l0,0c0.036-0.04,0.036-0.046,0.033-0.04l0,0l17.346-20.302
				c4.435-5.247,5.035-8.431,7.524-15.744l0,0c0.35-1.052,0.764-2.021,1.239-2.9l0,0l2.57-4.798l31.876,35.054
				c0.313-0.571,0.68-1.116,1.121-1.624l0,0c1.039-1.224,2.33-2.129,3.734-2.688l0,0L74.544,71.104l2.847-2.591l2.296,3.082
				l-2.296-3.082l-2.847,2.591L71.7,67.962l3.394-2.529c1.101-0.796,2.088-1.894,2.661-2.639l0,0
				c-0.25-0.296-0.573-0.601-0.795-0.788l0,0c-0.195-0.174-0.254-0.217-0.415-0.346l0,0l-5.016-4.295l0,0l-4.812-4.112
				c0,0-0.028-0.027-0.161-0.146l0,0c-0.142-0.109-0.343-0.272-0.573-0.446l0,0c-0.134-0.104-0.281-0.202-0.43-0.287l0,0
				c-0.283,0.292-0.624,0.671-0.951,1.092l0,0l-2.808,3.613l-2.547-2.804l-2.213,2.109l-5.993-6.51l1.964-1.879
				c-0.384-0.464-0.754-0.921-1.108-1.398l0,0c-1.189-1.594-2.222-3.476-2.728-5.697l0,0c-0.312-1.458-0.43-2.904-0.43-4.392l0,0
				c0.009-2.603,0.303-5.382,0.548-9.443l0,0c0.013-0.176,0.015-0.348,0.015-0.5l0,0c0.013-2.556-1.076-5.177-3-7.167l0,0
				c-1.328-1.397-3.022-2.463-4.939-3.031l0,0c-0.869-0.243-1.654-0.408-2.375-0.519l0,0l3.951,3.348
				c1.426,1.217,2.182,2.951,2.182,4.744l0,0c0,0.366-0.029,0.711-0.096,1.125l0,0l-2.108,11.332
				c-0.448,2.399-2.272,4.357-4.703,4.897l0,0L27.345,43.78c-0.472,0.104-0.932,0.156-1.358,0.144l0,0
				c-1.466,0-2.88-0.504-4.029-1.467l0,0l-2.88-2.453c0.742,1.996,1.781,3.662,2.969,4.887l0,0c1.264,1.319,2.645,2.159,4.09,2.585
				l0,0c1.074,0.308,1.91,0.401,2.803,0.401l0,0c0.803,0,1.678-0.093,2.751-0.234l0,0c1.217-0.152,2.87-0.482,4.89-0.488l0,0
				c1.277-0.002,2.719,0.144,4.359,0.617l0,0c1.708,0.551,2.859,1.453,3.653,2.015l0,0c0.939,0.704,1.85,1.468,2.675,2.189l0,0
				c0.281,0.247,0.551,0.482,0.82,0.72l0,0l2.106-2.021l5.991,6.514l-1.64,1.565L60.539,65.348L60.539,65.348z M103.537,108.355
				c-0.29,0.354-0.432,0.741-0.432,1.195l0,0c0,0.546,0.226,1.052,0.664,1.435l0,0c0.354,0.298,0.77,0.438,1.212,0.444l0,0
				c0.542-0.011,1.037-0.212,1.426-0.649l0,0v-0.004c0.301-0.375,0.438-0.783,0.442-1.226l0,0c-0.004-0.537-0.222-1.058-0.649-1.421
				l0,0c-0.377-0.315-0.776-0.449-1.219-0.453l0,0C104.44,107.681,103.931,107.896,103.537,108.355L103.537,108.355z M98.104,20.77
				l-3.935,9.015l8.278-5.282l5.378-8.892l-1.797-1.531L98.104,20.77L98.104,20.77z"/>
			<g>
				<linearGradient id="SVGID_1_" gradientUnits="userSpaceOnUse" x1="54.6567" y1="14.8467" x2="78.6492" y2="79.4657">
					<stop  offset="0.0989" style="stop-color:#A0A2A4"/>
					<stop  offset="0.2074" style="stop-color:#BCBEBF"/>
					<stop  offset="0.3187" style="stop-color:#D2D2D3"/>
					<stop  offset="0.4269" style="stop-color:#DFDFDF"/>
					<stop  offset="0.5275" style="stop-color:#E3E3E3"/>
					<stop  offset="0.5375" style="stop-color:#DCDCDC"/>
					<stop  offset="0.6125" style="stop-color:#ADAEAF"/>
					<stop  offset="0.6788" style="stop-color:#8B8C8E"/>
					<stop  offset="0.7334" style="stop-color:#77777A"/>
					<stop  offset="0.7696" style="stop-color:#6F7073"/>
				</linearGradient>
				<path fill="url(#SVGID_1_)" d="M47.649,57.535l52.231,56.791l0.04,0.057l0.054,0.055c2.652,2.775,7.084,2.922,9.9,0.333
					l0.116-0.115c2.786-2.665,2.953-7.078,0.334-9.921l-52.71-57.352L47.649,57.535z"/>
				<linearGradient id="SVGID_2_" gradientUnits="userSpaceOnUse" x1="30.9375" y1="23.6553" x2="54.9308" y2="88.2765">
					<stop  offset="0.1029" style="stop-color:#6D6E70"/>
					<stop  offset="0.1456" style="stop-color:#7E7F81"/>
					<stop  offset="0.2656" style="stop-color:#AAAAAB"/>
					<stop  offset="0.3735" style="stop-color:#C9C9CA"/>
					<stop  offset="0.4645" style="stop-color:#DCDCDC"/>
					<stop  offset="0.5275" style="stop-color:#E3E3E3"/>
					<stop  offset="0.6094" style="stop-color:#CACBCD"/>
					<stop  offset="0.6988" style="stop-color:#B6B7BA"/>
					<stop  offset="0.7582" style="stop-color:#AEB0B3"/>
				</linearGradient>
				<path fill="url(#SVGID_2_)" d="M52.928,40.085c-0.677-3.116-0.202-6.261,0.203-12.833c0.208-3.854-1.317-7.68-4.036-10.512
					c-1.785-1.863-4.063-3.301-6.669-4.063c-5.083-1.453-8.649-0.802-12.28,0.709l10.305,8.745c0.639,0.551,0.947,1.402,0.791,2.224
					L39.148,35.67c-0.17,0.929-0.882,1.674-1.799,1.877L26.51,40.033c-0.726,0.167-1.495-0.029-2.055-0.508l-10.272-8.732
					C13.52,37.7,15.69,43.824,19.266,47.55c1.684,1.756,3.659,2.986,5.812,3.619c2.717,0.787,4.834,0.595,7.116,0.279
					c2.244-0.29,4.71-0.827,7.559-0.018c1.068,0.35,1.705,0.845,2.548,1.444c0.811,0.606,1.66,1.315,2.44,1.999
					c1.569,1.366,2.893,2.646,2.909,2.663l0.098,0.093l0.346,0.39l10.247-9.808c-1.404-1.536-2.487-2.733-3.363-3.913
					C54.003,42.99,53.276,41.62,52.928,40.085z"/>
				<linearGradient id="SVGID_3_" gradientUnits="userSpaceOnUse" x1="65.5234" y1="65.8916" x2="108.418" y2="115.2753">
					<stop  offset="0" style="stop-color:#BBBDBF"/>
					<stop  offset="0.1309" style="stop-color:#B2B4B6"/>
					<stop  offset="0.3461" style="stop-color:#9A9B9D"/>
					<stop  offset="0.6191" style="stop-color:#737375"/>
					<stop  offset="0.9362" style="stop-color:#3E3C3D"/>
					<stop  offset="1" style="stop-color:#323031"/>
				</linearGradient>
				<path fill="url(#SVGID_3_)" d="M49.164,55.233c-1.66-1.803-1.531-4.607,0.269-6.254l0,0c1.794-1.649,4.6-1.534,6.254,0.265
					l44.888,48.826c1.656,1.801,1.538,4.605-0.263,6.26l0,0c-1.792,1.656-4.602,1.529-6.256-0.267L49.164,55.233z"/>
			</g>
			<g>
				<g>
					<linearGradient id="SVGID_4_" gradientUnits="userSpaceOnUse" x1="82.5312" y1="52.6528" x2="17.064" y2="115.2994">
						<stop  offset="0" style="stop-color:#8BC53F"/>
						<stop  offset="0.2711" style="stop-color:#69AF3F"/>
						<stop  offset="0.5641" style="stop-color:#4C9B3F"/>
						<stop  offset="0.8173" style="stop-color:#3A8F3F"/>
						<stop  offset="1" style="stop-color:#348B3F"/>
					</linearGradient>
					<path fill="url(#SVGID_4_)" d="M79.046,58.738c0,0,3.566,2.741,2.769,4.749c-0.452,1.173-2.979,4.605-6.528,6.343
						c-3.539,1.752-8.396,2.042-10.768,9.033c-2.367,7.003-3.265,11.193-8.228,17.005L38.95,116.171c0,0-6.737,7.882-14.196,1.472
						l-5.091-4.35c-7.502-6.374-0.766-14.247-0.766-14.247l17.345-20.305c4.956-5.808,8.958-7.355,15.501-10.785
						c6.537-3.434,6.065-8.284,7.243-12.046c1.175-3.778,4.159-6.81,5.251-7.444c1.857-1.094,5.117,1.994,5.117,1.994L79.046,58.738
						z"/>
					<linearGradient id="SVGID_5_" gradientUnits="userSpaceOnUse" x1="38.0732" y1="90.0693" x2="44.8042" y2="95.8226">
						<stop  offset="0.0989" style="stop-color:#F0EFEF"/>
						<stop  offset="0.5275" style="stop-color:#FFFFFF"/>
						<stop  offset="0.7198" style="stop-color:#E7E4E4"/>
					</linearGradient>
					<path fill="url(#SVGID_5_)" d="M56.884,81.69c1.591-1.864,1.375-4.656-0.49-6.254l0,0c-1.863-1.585-4.656-1.366-6.238,0.497
						l-24.157,28.28c-1.598,1.865-1.379,4.649,0.49,6.247l0,0c1.857,1.587,4.656,1.37,6.247-0.502L56.884,81.69z"/>
					
						<linearGradient id="SVGID_6_" gradientUnits="userSpaceOnUse" x1="60.7466" y1="-45.894" x2="59.8972" y2="-45.894" gradientTransform="matrix(-0.7603 -0.6495 -0.6495 0.7603 91.1289 138.8813)">
						<stop  offset="0.0989" style="stop-color:#F0EFEF"/>
						<stop  offset="0.5275" style="stop-color:#FFFFFF"/>
						<stop  offset="0.7198" style="stop-color:#E7E4E4"/>
					</linearGradient>
					<path fill="url(#SVGID_6_)" d="M78.161,62.171c0.343-0.404,0.301-1.005-0.104-1.348l0,0c-0.4-0.345-1.009-0.297-1.352,0.105
						L71.5,67.031c-0.341,0.398-0.299,0.997,0.105,1.348l0,0c0.408,0.345,1.005,0.292,1.35-0.107L78.161,62.171z"/>
					
						<linearGradient id="SVGID_7_" gradientUnits="userSpaceOnUse" x1="65.3848" y1="-45.894" x2="64.5363" y2="-45.894" gradientTransform="matrix(-0.7603 -0.6495 -0.6495 0.7603 91.1289 138.8813)">
						<stop  offset="0.0989" style="stop-color:#F0EFEF"/>
						<stop  offset="0.5275" style="stop-color:#FFFFFF"/>
						<stop  offset="0.7198" style="stop-color:#E7E4E4"/>
					</linearGradient>
					<path fill="url(#SVGID_7_)" d="M74.635,59.162c0.351-0.408,0.298-1.006-0.104-1.353l0,0c-0.404-0.337-1.005-0.297-1.348,0.104
						l-5.204,6.105c-0.35,0.405-0.303,1,0.097,1.348l0,0c0.409,0.339,1.003,0.294,1.353-0.107L74.635,59.162z"/>
					
						<linearGradient id="SVGID_8_" gradientUnits="userSpaceOnUse" x1="70.0176" y1="-45.8901" x2="69.1674" y2="-45.8901" gradientTransform="matrix(-0.7603 -0.6495 -0.6495 0.7603 91.1289 138.8813)">
						<stop  offset="0.0989" style="stop-color:#F0EFEF"/>
						<stop  offset="0.5275" style="stop-color:#FFFFFF"/>
						<stop  offset="0.7198" style="stop-color:#E7E4E4"/>
					</linearGradient>
					<path fill="url(#SVGID_8_)" d="M71.108,56.146c0.355-0.403,0.302-1.003-0.108-1.342l0,0c-0.392-0.349-0.992-0.301-1.343,0.107
						l-5.211,6.095c-0.343,0.401-0.291,1.003,0.105,1.35l0,0c0.408,0.344,1.008,0.292,1.357-0.104L71.108,56.146z"/>
					
						<linearGradient id="SVGID_9_" gradientUnits="userSpaceOnUse" x1="74.6553" y1="-45.895" x2="73.809" y2="-45.895" gradientTransform="matrix(-0.7603 -0.6495 -0.6495 0.7603 91.1289 138.8813)">
						<stop  offset="0.0989" style="stop-color:#F0EFEF"/>
						<stop  offset="0.5275" style="stop-color:#FFFFFF"/>
						<stop  offset="0.7198" style="stop-color:#E7E4E4"/>
					</linearGradient>
					<path fill="url(#SVGID_9_)" d="M67.586,53.138c0.351-0.399,0.298-1.006-0.104-1.349l0,0c-0.408-0.341-1.008-0.292-1.344,0.102
						l-5.213,6.107c-0.341,0.397-0.297,1.008,0.105,1.346l0,0c0.399,0.341,1.008,0.294,1.344-0.109L67.586,53.138z"/>
					<linearGradient id="SVGID_10_" gradientUnits="userSpaceOnUse" x1="89.9209" y1="46.144" x2="101.9614" y2="-21.034">
						<stop  offset="0" style="stop-color:#DCDCDD"/>
						<stop  offset="0.1606" style="stop-color:#ADADAE"/>
						<stop  offset="0.3198" style="stop-color:#858586"/>
						<stop  offset="0.4762" style="stop-color:#676768"/>
						<stop  offset="0.6288" style="stop-color:#515152"/>
						<stop  offset="0.776" style="stop-color:#444445"/>
						<stop  offset="0.9118" style="stop-color:#404041"/>
					</linearGradient>
					<polygon fill="url(#SVGID_10_)" points="76.854,56.87 95.736,33.358 105.282,27.249 112.811,14.816 106.041,9.042 
						94.943,18.418 90.401,28.816 71.538,52.328 					"/>
				</g>
			</g>
		</g>
	</g>
	<g>
		<path fill="#A6A8AB" d="M63.574,81.923c0.062-0.106,1.188-9.592,10.2-11.57l0,0c-0.006-0.038,0.812-0.163,2.171-0.898l0,0
			c1.362-0.736,3.151-2.008,4.794-4.168l0,0l3.027,2.283c-4.041,5.348-8.938,6.441-9.222,6.507l0,0
			c-3.06,0.617-4.781,2.577-5.873,4.589l0,0c-1.081,1.984-1.337,3.782-1.328,3.789l0,0v0.008L63.574,81.923L63.574,81.923z"/>
	</g>
	<g>
		<path fill="#A6A8AB" d="M51.562,63.645c-0.009-0.023,0.009,0.007,0.229-0.147l0,0c0.234-0.174,0.603-0.486,1.016-1.01l0,0
			c0.827-1.04,1.872-2.931,2.325-6.282l0,0c0.035-0.354,0.494-3.878,4.684-8.754l0,0l2.893,2.469
			c-1.854,2.157-2.801,3.907-3.283,5.074l0,0c-0.493,1.163-0.5,1.562-0.508,1.638l0,0c-1.032,8.041-5.385,10.37-5.862,10.514l0,0
			v0.009L51.562,63.645L51.562,63.645z"/>
	</g>
</g>
</svg>
