<?xml version="1.0" encoding="utf-8"?>
<!-- Generator: Adobe Illustrator 16.0.4, SVG Export Plug-In . SVG Version: 6.00 Build 0)  -->
<!DOCTYPE svg PUBLIC "-//W3C//DTD SVG 1.1//EN" "http://www.w3.org/Graphics/SVG/1.1/DTD/svg11.dtd">
<svg version="1.1" id="Layer_1" xmlns="http://www.w3.org/2000/svg" xmlns:xlink="http://www.w3.org/1999/xlink" x="0px" y="0px"
	 width="256px" height="256px" viewBox="0 0 256 256" enable-background="new 0 0 256 256" xml:space="preserve">
<path id="path6" fill="#FFFFFF" stroke="#000000" stroke-width="0.0478" d="M34.389,116.663c0,0,0.05,0.931-0.354,0.921
	c-0.404-0.009-8.483-23.613-18.562-22.513C15.472,95.071,24.204,91.461,34.389,116.663z"/>
<path id="path10" fill="#FFFFFF" stroke="#000000" stroke-width="0.0478" d="M36.123,115.179c0,0-0.27,0.893-0.646,0.745
	c-0.378-0.146,0.056-25.091-9.796-27.484C25.68,88.439,35.119,88.015,36.123,115.179z"/>
<path id="path14" fill="#FFFFFF" stroke="#000000" stroke-width="0.0478" d="M49.621,135.962c0,0,0.803,0.472,0.572,0.805
	c-0.231,0.331-24.375-5.953-29.018,3.06C21.175,139.825,22.981,130.553,49.621,135.962z"/>
<path id="path18" fill="#FFFFFF" stroke="#000000" stroke-width="0.0478" d="M48.241,140.976c0,0,0.911,0.194,0.797,0.583
	c-0.114,0.388-25.01,2.029-26.575,12.046C22.461,153.604,21.255,144.233,48.241,140.976z"/>
<path id="path22" fill="#FFFFFF" stroke="#000000" stroke-width="0.0478" d="M46.173,138.263c0,0,0.873,0.325,0.703,0.693
	c-0.17,0.366-25.037-1.641-28.048,8.04C18.829,146.996,19,137.551,46.173,138.263z"/>
<path id="path26" fill="#FFFFFF" stroke="#000000" stroke-width="0.0478" d="M40.917,129.324c0,0,0.643,0.675,0.328,0.931
	c-0.313,0.256-21.791-12.438-28.737-5.053C12.508,125.202,16.8,116.785,40.917,129.324z"/>
<path id="path30" fill="#FFFFFF" stroke="#000000" stroke-width="0.0478" d="M37.212,131.383c0,0,0.715,0.597,0.433,0.888
	c-0.283,0.289-23.059-9.894-29.125-1.769C8.52,130.502,11.832,121.653,37.212,131.383z"/>
<path id="path34" fill="#FFFFFF" stroke="#000000" stroke-width="0.0478" d="M35.936,133.382c0,0,0.79,0.494,0.549,0.82
	c-0.24,0.325-24.191-6.658-29.094,2.218C7.391,136.42,9.466,127.202,35.936,133.382z"/>
<path id="path38" fill="#FFFFFF" stroke="#000000" stroke-width="0.0478" d="M41.207,133.684c0,0,0.551,0.751,0.206,0.965
	c-0.344,0.214-20.018-15.129-27.853-8.694C13.56,125.954,18.895,118.156,41.207,133.684z"/>
<path id="path42" fill="#FFFFFF" stroke="#000000" stroke-width="0.0478" d="M31.495,119.47c0,0,0.295,0.884-0.098,0.981
	c-0.394,0.099-14.436-20.523-23.863-16.792C7.534,103.659,14.998,97.866,31.495,119.47z"/>
<path id="path46" fill="#FFFFFF" stroke="#000000" stroke-width="0.0478" d="M31.836,122.896c0,0,0.479,0.8,0.115,0.979
	c-0.362,0.181-18.521-16.928-26.922-11.251C5.03,112.626,11.068,105.358,31.836,122.896z"/>
<path id="path50" fill="#FFFFFF" stroke="#000000" stroke-width="0.0478" d="M31.78,125.042c0,0,0.551,0.752,0.207,0.965
	c-0.345,0.214-20.018-15.129-27.854-8.694C4.133,117.312,9.467,109.516,31.78,125.042z"/>
<path id="path54" fill="#FFFFFF" stroke="#000000" stroke-width="0.2781" d="M30.695,125.885c0.247,2.969,0.731,6.193,1.586,7.726
	c0,0-1.768,6.089,2.553,12.569c0,0-0.196,3.535,0.589,5.106c0,0,1.964,4.124,4.321,4.517c1.907,0.317,6.189,1.824,11.031,2.514
	c0,0,8.412,6.913,6.841,13.198c0,0-0.196,8.052-1.965,8.838c0,0,5.696-5.499,0.982,2.75l-2.16,9.229c0,0,12.569-10.605,4.91-1.57
	l-4.91,12.766c0,0,9.623-9.034,6.088-4.91l-1.571,4.321c0,0,21.211-13.355,6.089,1.178c0,0,3.928-1.768,6.088-0.393
	c0,0,3.339-0.589,2.946,0.196c0,0-10.213,5.105-11.98,14.141c0,0,4.124-4.91,2.553,0.393l0.196,5.695c0,0,1.965-10.605,1.768,7.855
	c0,0,9.427-8.837,3.731,1.375v8.249c0,0,7.464-8.053,4.321-1.768c0,0,4.91-4.32,2.946,3.143c0,0-0.394,5.105,1.768-0.393
	c0,0,7.855-15.024,4.909-2.161c0,0-0.393,9.427,1.964,2.161c0,0,0.196,5.105,4.714,8.641c0,0-0.589-24.941,5.695-7.267l1.964,8.053
	c0,0,1.375-4.518,1.179-7.07c0,0,7.267-8.053,3.928,3.928c0,0,7.463-11.195,5.892-4.714c0,0-3.731,7.856-2.946,10.213
	c0,0,8.249-17.086,8.838-17.872c0,0-0.981,20.818,4.321,3.142c0,0,2.749,5.893,1.374,8.053c0,0,3.928-3.928,3.535-5.498
	c0,0,2.259-4.027,3.634,2.65c0,0,0.883,4.616,1.668,3.044c0,0,1.965,11.784,2.555,0.59c0,0,0.785-6.678-2.75-12.373
	c0,0,0.393-1.571-0.983-3.535c0,0,6.678,10.605,3.143-3.535c0,0,5.5,3.928,6.088,3.928c0,0-6.678-11.392-2.357-9.034
	c0,0-2.553-5.106,6.285,0.785c0,0-7.855-7.855,0.787-3.143c0,0,3.928,3.143,0.195-1.768c0,0-7.07-7.855,3.732,0.982
	c0,0,5.695,8.053,6.088,9.427c0,0-4.91-14.337-7.07-15.711c0,0,4.125-17.873,24.354-10.214c0,0,3.338,8.445,5.498-0.589
	c0,0,6.285-3.143,11.783,10.409c0,0,1.965-6.678,1.572-8.052c0,0,3.338,0.589,2.945,0c0,0,6.482,2.16,7.072,1.768
	c0,0,3.338,3.339,3.533,1.57c0,0,4.518,1.375,3.535-0.393c0,0,4.322,7.659,4.518,9.427l1.178-6.874l0.982,1.374
	c0,0,0.785-3.731,0.393-4.32s9.82,3.339,12.178,13.552l0.98,4.124c0,0,2.947-7.267,2.162-9.23c0,0,2.553,0.393,2.748,2.553
	c0,0,1.965-11.391-0.393-14.337c0,0,2.16-0.393,2.75,1.375v-3.534c0,0,3.535,0.393,3.535-0.785c0,0,2.16-1.965,3.143,0.393
	c0,0-6.088-17.283,2.945-7.856c0,0,3.537,5.303,1.768-3.928c-1.768-9.23-3.73-10.017-1.373-10.213c0,0,0.393-1.768-0.59-2.553
	c-0.982-0.786,0.59,0,0.59,0s2.355,1.964-0.197-8.838c0,0,3.143,0.785-2.75-13.551c0,0,1.375-1.179-0.588-5.304
	c0,0,3.928,2.161,5.303,1.375c0,0-0.197-0.785-1.768-2.75c0,0-10.607-26.906-0.59-16.104c0,0,5.818,6.652,2.676-4.542
	c0,0-4.473-11.789-4.092-13.898L30.695,125.885z"/>
<path id="path58" fill="#CC7226" stroke="#000000" stroke-width="0.2781" d="M241.598,114.68c0.309,0.089,1.393,0.641,2.006,1.451
	c0,0,3.338,5.302,0.785-3.731c0,0-4.516-14.141-0.195-8.642c0,0,2.945,3.535,1.375-3.143c-1.898-8.065-3.143-11.194-3.143-11.194
	s5.693,2.356-7.463-17.087l4.32,1.768c0,0-9.623-19.443-20.229-21.996l-3.928-2.946c0,0,18.854-18.657,12.568-36.726
	c0,0-3.34-2.553-8.053,1.964c0,0-3.143,2.357-6.088,1.571c0,0-15.123,0.589-16.105,0.589c-0.98,0-18.066-18.265-50.275-9.624
	c0,0-2.555,0.982-4.715,0.393c0,0-9.035-7.856-32.995,3.338c0,0-4.909,0.982-5.695,0.982c-0.785,0-2.161,0-6.089,3.143
	c-3.928,3.142-4.124,3.535-5.105,4.321c0,0-8.053,5.499-10.409,5.892c0,0-5.695,3.142-7.856,8.052l-1.768,0.589
	c0,0-0.785,3.535-0.981,4.125c0,0-2.357,1.767-2.75,4.517c0,0-4.32,2.946-4.124,5.106c0,0-0.785,2.553-1.179,4.91
	c0,0-3.535,2.356-3.143,3.731c0,0-3.731,6.874-3.142,10.212c0,0-3.143-0.196-4.518,0.982c0,0-0.393,2.356-1.179,2.553
	c0,0-1.374,0.59-0.196,2.554c0,0-0.785,1.374-0.981,2.16c0,0,0.393,1.375-1.768,4.124c0,0-3.143,9.23-2.16,11.784
	c0,0,0.196,2.356-1.179,3.142c0,0-1.768-0.196,2.356,5.695c0,0,0.394,0.59-1.178,1.768c0,0-8.445,1.768-9.624,9.82
	c0,0-6.677,7.267-6.677,9.819c0,1.132,0.133,2.677,0.476,4.942c0,0-0.279,4.093,13.271,4.485
	C57.419,130.468,241.598,114.68,241.598,114.68z"/>
<path id="path62" fill="#CC7226" d="M37.681,125.656c-12.274-19.345-5.204,8.347-5.204,8.347c4.32,16.891,67.953-1.57,67.953-1.57
	s82.88-14.927,88.378-16.891s52.242,1.179,52.242,1.179l-2.75-8.249c-31.816-22.782-41.244-11.391-47.922-13.354
	s-5.498,2.749-7.07,3.142c-1.57,0.394-20.816-11.783-23.959-11.391s-15.586-11.269-8.25,4.32
	c7.855,16.694-28.673,19.247-36.922,13.748s3.535,9.035,3.535,9.035c9.034,9.819-7.855,1.57-7.855,1.57
	c-16.89-6.285-28.675,6.285-30.245,6.678c-1.571,0.393-3.929,1.964-4.321-1.178c-0.393-3.144-4.08-11.343-19.64,1.57
	c-9.819,8.151-16.596-2.651-16.596-2.651L37.681,125.656z"/>
<path id="path66" fill="#E87F3A" d="M159.992,87.725c-3.143,0.394-15.598-11.263-8.248,4.321
	c8.15,17.283-28.674,19.247-36.922,13.748c-8.25-5.499,3.535,9.034,3.535,9.034c9.034,9.819-7.856,1.57-7.856,1.57
	c-16.891-6.284-28.674,6.285-30.245,6.678s-3.928,1.964-4.321-1.178c-0.393-3.143-4.016-11.261-19.64,1.57
	c-10.427,8.518-17.051-2.017-17.051-2.017l-1.57,4.963c-12.275-19.541-4.875,9.089-4.875,9.089
	c4.321,16.89,68.274-2.215,68.274-2.215s82.88-14.926,88.378-16.89c5.5-1.964,51.814,1.143,51.814,1.143l-2.715-8.499
	c-31.816-22.782-40.85-11.105-47.527-13.069s-5.5,2.75-7.07,3.143C182.381,99.509,163.135,87.332,159.992,87.725z"/>
<path id="path70" fill="#EA8C4D" d="M160.635,88.582c-3.143,0.393-15.287-11.405-8.248,4.32
	c7.953,17.774-28.674,19.248-36.923,13.748c-8.248-5.499,3.535,9.035,3.535,9.035c9.034,9.819-7.855,1.57-7.855,1.57
	c-16.891-6.284-28.675,6.285-30.246,6.678s-3.928,1.964-4.32-1.178c-0.394-3.143-3.952-11.179-19.64,1.57
	c-11.034,8.883-17.506-1.384-17.506-1.384l-1.768,4.231c-11.686-19.148-4.544,9.829-4.544,9.829
	c4.32,16.89,68.597-2.856,68.597-2.856s82.879-14.927,88.377-16.89c5.5-1.964,51.385,1.106,51.385,1.106l-2.678-8.749
	c-31.816-22.781-40.459-10.819-47.135-12.783c-6.68-1.965-5.5,2.749-7.072,3.143C183.023,100.366,163.777,88.188,160.635,88.582z"/>
<path id="path74" fill="#EC9961" d="M161.277,89.439c-3.143,0.393-15.283-11.407-8.248,4.32
	c8.248,18.439-28.937,19.072-36.922,13.748c-8.249-5.499,3.535,9.034,3.535,9.034c9.033,9.82-7.855,1.571-7.855,1.571
	c-16.891-6.285-28.675,6.284-30.246,6.677c-1.57,0.394-3.928,1.965-4.32-1.178s-3.888-11.096-19.64,1.571
	c-11.642,9.248-17.962-0.75-17.962-0.75l-1.964,3.499c-10.704-18.068-4.214,10.571-4.214,10.571c4.321,16.889,68.918-3.5,68.918-3.5
	s82.879-14.927,88.379-16.891c5.498-1.964,50.955,1.071,50.955,1.071l-2.643-8.998c-31.816-22.782-40.064-10.534-46.742-12.498
	s-5.5,2.75-7.07,3.142C183.666,101.223,164.42,89.046,161.277,89.439z"/>
<path id="path78" fill="#EEA575" d="M161.92,90.296c-3.143,0.394-15.035-11.516-8.248,4.321
	c8.248,19.247-28.674,19.247-36.922,13.748c-8.249-5.499,3.535,9.033,3.535,9.033c9.034,9.82-7.856,1.571-7.856,1.571
	c-16.891-6.284-28.674,6.285-30.245,6.678s-3.928,1.965-4.32-1.178c-0.394-3.143-3.823-11.014-19.64,1.57
	c-12.249,9.615-18.417-0.116-18.417-0.116l-2.161,2.768c-9.722-17.087-3.883,11.311-3.883,11.311
	c4.32,16.891,69.239-4.142,69.239-4.142s82.879-14.927,88.377-16.891c5.5-1.964,50.529,1.036,50.529,1.036l-2.607-9.249
	c-31.816-22.782-39.672-10.248-46.35-12.212s-5.5,2.75-7.07,3.143S165.062,89.903,161.92,90.296z"/>
<path id="path82" fill="#F1B288" d="M162.562,91.153c-3.141,0.393-15.889-11.122-8.248,4.32
	c9.428,19.051-28.674,19.247-36.923,13.748c-8.247-5.499,3.536,9.034,3.536,9.034c9.034,9.82-7.855,1.571-7.855,1.571
	c-16.891-6.285-28.675,6.284-30.245,6.678c-1.571,0.393-3.928,1.964-4.321-1.179c-0.393-3.143-3.758-10.931-19.64,1.571
	c-12.855,9.98-18.872,0.518-18.872,0.518l-2.357,2.035c-8.838-16.301-3.553,12.052-3.553,12.052
	c4.321,16.891,69.561-4.785,69.561-4.785s82.879-14.927,88.379-16.89c5.498-1.965,50.098,0.999,50.098,0.999l-2.57-9.498
	c-31.816-22.782-39.279-9.963-45.957-11.927c-6.678-1.963-5.498,2.75-7.07,3.143C184.953,102.937,165.705,90.76,162.562,91.153z"/>
<path id="path86" fill="#F3BF9C" d="M163.207,92.01c-3.145,0.393-16.078-11.027-8.25,4.32
	c10.016,19.641-28.674,19.247-36.922,13.748c-8.249-5.499,3.535,9.034,3.535,9.034c9.034,9.82-7.856,1.571-7.856,1.571
	c-16.89-6.284-28.674,6.285-30.245,6.678s-3.928,1.965-4.32-1.178s-3.694-10.85-19.64,1.57
	c-13.463,10.347-19.327,1.151-19.327,1.151l-2.554,1.304c-7.855-14.827-3.223,12.793-3.223,12.793
	c4.321,16.891,69.882-5.428,69.882-5.428s82.879-14.927,88.379-16.89c5.498-1.965,49.67,0.964,49.67,0.964l-2.535-9.749
	c-31.816-22.781-38.887-9.677-45.564-11.641s-5.498,2.75-7.07,3.143C185.596,103.794,166.348,91.617,163.207,92.01z"/>
<path id="path90" fill="#F5CCB0" d="M163.85,92.867c-3.143,0.393-16.617-10.741-8.25,4.32
	c10.803,19.443-28.673,19.247-36.922,13.748c-8.248-5.499,3.536,9.034,3.536,9.034c9.033,9.82-7.856,1.571-7.856,1.571
	c-16.89-6.285-28.674,6.284-30.245,6.678c-1.571,0.393-3.928,1.964-4.321-1.179c-0.393-3.143-3.629-10.766-19.64,1.571
	c-14.069,10.713-19.782,1.786-19.782,1.786l-2.75,0.57c-7.07-13.944-2.892,13.534-2.892,13.534c4.32,16.891,70.202-6.07,70.202-6.07
	s82.881-14.927,88.379-16.89c5.498-1.965,49.242,0.928,49.242,0.928l-2.5-9.998c-31.816-22.782-38.494-9.392-45.172-11.355
	c-6.676-1.964-5.498,2.75-7.068,3.143C186.238,104.651,166.992,92.475,163.85,92.867z"/>
<path id="path94" fill="#F8D8C4" d="M164.492,93.725c-3.143,0.393-16.617-10.741-8.248,4.32
	c10.801,19.443-28.674,19.247-36.923,13.748c-8.248-5.499,3.535,9.034,3.535,9.034c9.035,9.82-7.855,1.571-7.855,1.571
	c-16.891-6.285-28.675,6.284-30.246,6.678c-1.571,0.393-3.928,1.964-4.32-1.179c-0.394-3.143-3.564-10.684-19.64,1.571
	c-14.677,11.078-20.238,2.419-20.238,2.419l-2.945-0.16c-6.679-12.963-2.562,14.274-2.562,14.274
	c4.321,16.89,70.524-6.714,70.524-6.714s82.878-14.927,88.378-16.89c5.5-1.964,48.814,0.893,48.814,0.893l-2.465-10.249
	c-31.816-22.781-38.102-9.104-44.777-11.069c-6.678-1.964-5.5,2.75-7.072,3.143C186.881,105.508,167.635,93.332,164.492,93.725z"/>
<path id="path98" fill="#FAE5D7" d="M165.135,94.581c-3.143,0.394-16.426-10.845-8.25,4.321
	c10.803,20.032-28.673,19.247-36.921,13.747c-8.248-5.498,3.535,9.035,3.535,9.035c9.035,9.819-7.855,1.571-7.855,1.571
	c-16.891-6.286-28.674,6.284-30.246,6.677c-1.571,0.393-3.928,1.965-4.321-1.179c-0.393-3.142-3.499-10.601-19.64,1.571
	c-15.282,11.445-20.692,3.054-20.692,3.054l-3.143-0.894c-6.384-11.783-2.231,15.016-2.231,15.016
	c4.32,16.891,70.846-7.356,70.846-7.356s82.88-14.926,88.378-16.889c5.498-1.965,48.385,0.856,48.385,0.856l-2.428-10.498
	c-31.816-22.782-37.709-8.82-44.385-10.784c-6.678-1.964-5.5,2.75-7.07,3.143C187.523,106.365,168.277,94.188,165.135,94.581z"/>
<path id="path102" fill="#FCF2EB" d="M165.777,95.438c-3.143,0.393-15.896-11.118-8.248,4.32
	c10.408,21.015-28.674,19.247-36.923,13.748c-8.248-5.499,3.535,9.034,3.535,9.034c9.035,9.82-7.855,1.571-7.855,1.571
	c-16.891-6.285-28.674,6.285-30.245,6.678s-3.928,1.964-4.32-1.179c-0.394-3.143-3.436-10.519-19.64,1.571
	c-15.892,11.811-21.149,3.687-21.149,3.687l-3.339-1.624c-6.284-11.392-1.9,15.756-1.9,15.756c4.32,16.89,71.166-7.999,71.166-7.999
	s82.88-14.927,88.378-16.89c5.5-1.964,47.957,0.82,47.957,0.82l-2.393-10.748c-31.816-22.782-37.314-8.533-43.992-10.497
	c-6.678-1.965-5.5,2.749-7.07,3.142C188.166,107.223,168.92,95.045,165.777,95.438z"/>
<path id="path106" fill="#FFFFFF" d="M37.583,134.003c-6.285-10.802-1.571,16.498-1.571,16.498
	c4.32,16.89,71.488-8.642,71.488-8.642s82.88-14.927,88.378-16.89c5.5-1.965,47.527,0.784,47.527,0.784l-2.355-10.998
	c-31.816-22.782-36.924-8.248-43.602-10.213c-6.676-1.964-5.498,2.75-7.07,3.143c-1.57,0.393-20.816-11.783-23.959-11.391
	s-15.525-11.297-8.25,4.32c10.914,23.424-29.832,18.475-36.922,13.748c-8.248-5.499,3.535,9.034,3.535,9.034
	c9.034,9.819-7.855,1.571-7.855,1.571c-16.89-6.285-28.674,6.285-30.245,6.678s-3.928,1.964-4.321-1.179
	c-0.393-3.143-3.37-10.437-19.64,1.571c-16.497,12.177-21.604,4.321-21.604,4.321L37.583,134.003z"/>
<path id="path110" d="M58.008,148.733c0,0-3.535,5.694,6.678,12.176c0,0,0.688,0.688-8.15-1.374c0,0-3.044-0.982-3.83-6.089
	c0,0-2.356-2.16-4.713-4.909C45.635,145.787,58.008,148.733,58.008,148.733z"/>
<path id="path114" fill="#CCCCCC" d="M126.747,125.361c0,0,8.691,13.169,8.396,15.517c-0.639,5.105-0.736,9.819,0.836,11.783
	c1.57,1.964,5.891,18.265,5.891,18.265s-0.195,0.59,5.893-18.068c0,0,5.695-7.855-4.125-16.89
	C143.637,135.968,126.354,121.826,126.747,125.361z"/>
<path id="path118" d="M67.829,161.892c0,0,5.499,3.535-1.571,18.854l3.142-1.178c0,0-0.393,5.498-1.964,6.677l3.535-1.57
	c0,0,2.356,3.928,0.393,6.285c0,0,8.249,3.928,7.856,7.069c0,0,3.142-3.928,1.178-7.069c-1.964-3.143-5.499-1.179-5.106-10.214
	l-4.32,1.571c0,0,2.749-4.32,2.749-7.463l-3.928,1.178c0,0,7.596-13.05,2.357-13.747C69.203,161.892,67.829,161.892,67.829,161.892z
	"/>
<path id="path122" fill="#CCCCCC" d="M83.736,170.141c0,0,1.375-2.16,0-1.768c-1.375,0.394-16.693,7.659-19.639,12.373
	C64.097,180.746,80.987,168.766,83.736,170.141z"/>
<path id="path126" fill="#CCCCCC" d="M88.842,174.068c0,0,1.375-2.16,0-1.768c-1.375,0.394-16.693,7.66-19.64,12.373
	C69.203,184.674,86.093,172.693,88.842,174.068z"/>
<path id="path130" fill="#CCCCCC" d="M95.324,166.605c0,0,1.375-2.16,0-1.768s-16.694,7.66-19.64,12.373
	C75.684,177.211,92.574,165.23,95.324,166.605z"/>
<path id="path134" fill="#CCCCCC" d="M83.933,188.013c0,0,0-2.946-1.375-2.554s-19.051,9.034-21.997,13.748
	C60.561,199.207,81.183,186.638,83.933,188.013z"/>
<path id="path138" fill="#CCCCCC" d="M84.522,182.71c0,0,0.589-2.357-0.786-1.965c-0.981,0-13.943,5.696-16.89,10.41
	C66.846,191.154,81.379,180.55,84.522,182.71z"/>
<path id="path142" fill="#CCCCCC" d="M77.452,206.081l-4.91,3.731c0,0,5.106-3.731,6.874-3.143c0,0-3.339,5.499-3.731,8.053
	c0,0,5.106-6.285,7.855-6.089c0,0,3.731,0.196,3.731,5.499c0,0,2.75-5.106,4.321-4.91c0,0,0.589,3.143,0,6.481
	c0,0,1.964-3.731,3.928-2.946c0,0,3.143-0.981,2.749,4.714c0,0,0,5.105-0.393,6.481c0,0,2.75-12.962,3.929-13.158
	c0,0,3.928-0.59,6.285,3.731c0,0-1.965-3.731,0.393-2.75c0,0,5.302,0.785,6.874,4.124c0,0-3.339-5.892-0.59-4.32
	c0,0,3.339,0,3.929,3.143c0,0,4.124,10.409,5.105,11.194c0,0-3.731-10.605-2.946-10.605c0,0-0.981-5.892,1.571,1.374
	c0,0-1.571-6.874,1.179-6.48c2.749,0.393,4.909,5.303,9.034,4.124c0,0,4.715,2.75,5.695-31.227L77.452,206.081z"/>
<path id="path146" d="M79.808,160.517c0,0,7.267-2.946,26.906,0c0,0,3.535,0.196,6.874-4.124s16.498-7.855,19.64-6.874l4.713,3.143
	l0.395,0.589c0,0,6.088,5.106,6.283,8.838c0.197,3.731-7.07,27.299-11.783,35.154c-4.713,7.856-9.427,13.945-18.855,12.767
	c0,0-10.212-1.965-22.781,0c0,0-14.338-0.786-15.712-4.714c-1.375-3.928,5.499-11.392,5.499-11.392s2.16-4.124,1.571-11.194
	C81.969,175.64,82.165,161.892,79.808,160.517z"/>
<path id="path150" fill="#E5668C" d="M90.61,161.499c4.125,9.034-10.408,41.047-10.408,41.047
	c-0.982,0.785,6.216,3.754,11.194,2.553c5.374-1.295,25.139,0.786,25.139,0.786c11.587-7.659,17.872-29.459,17.872-29.459
	s5.107-11.784-3.535-13.355C122.23,161.499,90.61,161.499,90.61,161.499z"/>
<path id="path154" fill="#B23259" d="M89.613,176.669c1.633-6.28,2.411-12.074,0.997-15.171c0,0,30.639,3.144,36.137-7.07
	c2.083-3.866,9.33,11.195,9.132,15.908c0,0-30.932,7.07-38.199,1.571L89.613,176.669z"/>
<path id="path158" fill="#A5264C" d="M91.789,184.674c0,0,0.982,3.535-0.196,5.499c0,0-0.786,0.393-1.375,0.589
	c0,0,0.589,1.768,3.535,2.554c0,0,0.982,2.16,2.161,2.356s3.535,2.946,5.498,2.356c1.965-0.589,7.464-2.553,7.464-2.553
	s2.75-1.571,7.07,0.196c0,0,1.166-0.394,1.374-2.356c0.246-2.309,1.768-4.125,2.75-5.106c0.981-0.981,5.695-7.268,5.106-7.463
	C124.587,180.55,91.789,184.674,91.789,184.674z"/>
<path id="path162" fill="#FF727F" stroke="#000000" stroke-width="0.2781" d="M89.628,160.909c0,0-1.375,10.999,0.196,15.123
	c1.571,4.125,1.179,5.106,0.785,7.07c-0.393,1.964,1.768,6.874,4.518,9.82l5.892,0.785c0,0,7.464-1.767,11.98-0.393
	c0,0,4.416,0.659,6.089-6.678c0,0,2.356-3.143,5.892-4.517c3.535-1.375,7.071-21.8,5.106-25.729
	c-1.963-3.928-9.035-6.089-16.89,1.571C105.34,165.623,104.358,157.375,89.628,160.909z"/>
<path id="path166" fill="#FFFFCC" stroke="#000000" stroke-width="0.139" d="M90.414,197.636c0,0-0.393-0.981-2.553-1.178
	c0,0-10.998-1.768-15.123-7.856c0,0-3.339-2.749-1.179,2.946c0,0,5.106,10.017,8.445,11.392
	C80.004,202.938,88.057,204.902,90.414,197.636z"/>
<path id="path170" fill="#CC3F4C" d="M129.664,166.227c0.324-3.882,1.283-8.111,0.422-9.833c-3.166-6.332-11.499-3.686-16.89,1.57
	c-7.855,7.659-8.837-0.589-23.567,2.946c0,0-0.856,6.855-0.444,11.771c0,0,18.316-5.684,18.709-2.934c0,0,0.785-1.571,5.302-1.571
	C117.712,168.177,128.879,167.601,129.664,166.227z"/>
<path id="path174" stroke="#A51926" stroke-width="0.5562" d="M108.482,161.303c0,0,2.357,2.357,0.589,7.07
	c0,0-7.07,7.856-6.088,14.73"/>
<path id="path178" fill="#FFFFCC" stroke="#000000" stroke-width="0.139" d="M84.915,202.938c0,0-2.16-6.285,2.16-2.945
	c0,0,2.357,0.981,1.768,1.767C88.253,202.546,85.504,204.51,84.915,202.938z"/>
<path id="path182" fill="#FFFFCC" stroke="#000000" stroke-width="0.139" d="M87.389,203.527c0,0-1.729-5.027,1.729-2.356
	c0,0,2.171,1.201,1.414,1.414C88.292,203.214,90.532,204.471,87.389,203.527z"/>
<path id="path186" fill="#FFFFCC" stroke="#000000" stroke-width="0.139" d="M89.746,203.527c0,0-1.728-5.027,1.729-2.356
	c0,0,2.148,1.134,1.414,1.414C91.239,203.214,92.888,204.471,89.746,203.527z"/>
<path id="path190" fill="#FFFFCC" stroke="#000000" stroke-width="0.139" d="M92.987,203.626c0,0-1.729-5.027,1.728-2.356
	c0,0,2.152,1.145,1.415,1.414C94.675,203.214,96.129,204.568,92.987,203.626z"/>
<path id="path194" fill="#FFFFCC" stroke="#000000" stroke-width="0.139" d="M96.168,203.587c0,0-1.729-5.028,1.729-2.357
	c0,0,1.886,0.785,1.414,1.414S99.311,204.529,96.168,203.587z"/>
<path id="path198" fill="#FFFFCC" stroke="#000000" stroke-width="0.139" d="M99.448,203.921c0,0-2.357-6.089,2.16-2.946
	c0,0,2.357,0.981,1.768,1.767C102.787,203.527,103.375,205.099,99.448,203.921z"/>
<path id="path202" stroke="#A5264C" stroke-width="0.5562" d="M85.504,195.476c0,0,6.48-1.375,9.427,0.196
	c0,0,2.945,0.589,3.535,0.393c0.589-0.196,2.16-0.393,2.16-0.393"/>
<path id="path206" stroke="#A5264C" stroke-width="0.5562" d="M102.198,199.796c0,0,5.892-6.678,11.783-4.517
	c3.445,1.264,2.946-0.393,3.339-1.768c0.393-1.374,0.492-3.437,2.947-4.91"/>
<path id="path210" fill="#FFFFCC" stroke="#000000" stroke-width="0.139" d="M110.643,191.94c0,0-1.964-5.303-3.339,0.981
	c-1.375,6.285-2.946,8.053-3.731,9.427c0,0,0,2.554,4.124,2.357c0,0,5.302-0.196,5.498-1.571
	C113.392,201.76,112.607,196.064,110.643,191.94z"/>
<path id="path214" stroke="#A5264C" stroke-width="0.5562" d="M117.516,195.476c0,0,1.768-1.179,2.946-0.589"/>
<path id="path218" stroke="#A5264C" stroke-width="0.5562" d="M120.708,187.423c0,0,1.424-2.405,3.781-2.798"/>
<path id="path222" fill="#B2B2B2" d="M81.772,205.491c0,0,8.838,1.571,10.999,0.786c0,0,4.32,0,0.196,0.981
	c0,0-6.285,0-10.213-0.589C82.754,206.67,77.059,203.921,81.772,205.491z"/>
<path id="path226" fill="#FFFFCC" stroke="#000000" stroke-width="0.139" d="M88.646,159.731c0,0,8.642,0,9.623,0.393
	c0,0,3.535,15.122,1.768,18.854c0,0-0.589,1.374-1.964-1.375c0,0-9.034-16.104-10.605-17.086
	C85.896,159.535,88.057,159.731,88.646,159.731z"/>
<path id="path230" fill="#FFFFCC" stroke="#000000" stroke-width="0.139" d="M50.791,158.405c0,0,4.37,0.835,10.557,2.112
	c0,0,2.356,10.998,3.928,13.354s-0.196,2.357-1.964,0.981c-1.768-1.375-9.034-8.248-10.017-10.408
	C52.313,162.284,50.791,158.405,50.791,158.405z"/>
<path id="path234" fill="#FFFFCC" stroke="#000000" stroke-width="0.139" d="M61.524,160.623c0,0,2.848,0.76,3.344,1.848
	c0.494,1.088-0.591,2.706-0.591,2.706s-0.491,1.623-1.081,0.562C62.606,164.676,61.196,160.915,61.524,160.623z"/>
<path id="path238" d="M61.543,160.517c0,0,1.768,2.554,3.535,2.554s1.955-0.203,3.339,0.098c2.258,0.492,2.062-0.491,5.303,0.099
	c1.296,0.236,2.553-0.196,3.928,0.393c1.375,0.59,2.945,0.196,3.535-0.785c0.589-0.982,2.946-3.044,2.946-3.044
	s-6.285,0.884-7.66,1.276C76.469,161.106,65.471,161.695,61.543,160.517z"/>
<path id="path242" fill="#FFFFCC" stroke="#000000" stroke-width="0.139" d="M83.442,160.615c0,0-3.167,1.719-3.363,2.896
	c-0.197,1.179,2.577,2.996,2.577,2.996s1.351,2.258,1.646,1.079C84.595,166.409,83.834,160.812,83.442,160.615z"/>
<path id="path246" fill="#FFFFCC" stroke="#000000" stroke-width="0.139" d="M65.037,163.298c0,0,3.44,5.493,3.547-0.012
	c0,0,0.273-0.618-0.591-0.629C65.01,162.621,65.757,160.606,65.037,163.298z"/>
<path id="path250" fill="#FFFFCC" stroke="#000000" stroke-width="0.139" d="M68.561,163.42c0,0,3.89,5.493,3.577-0.045
	c0,0,0.003-0.164-0.857-0.238C68.95,162.933,69.12,160.715,68.561,163.42z"/>
<path id="path254" fill="#FFFFCC" stroke="#000000" stroke-width="0.139" d="M72.103,163.424c0,0,3.908,5.219,3.579,0.472
	c0,0,0.059-0.605-0.754-0.753C73.018,162.797,72.915,161.201,72.103,163.424z"/>
<path id="path258" fill="#FFFFCC" stroke="#000000" stroke-width="0.139" d="M75.479,163.464c0,0,3.879,5.676,4.05,0.873
	c0,0,0.807-0.676-0.05-0.785C76.622,163.188,77.013,161.001,75.479,163.464z"/>
<path id="path262" fill="#E5E5B2" d="M57.717,165.196l-3.76-0.751c-1.276-2.455-2.308-5.476-2.308-5.476s3.118,0.492,9.255,1.866
	c0,0,0.431,1.629,1.153,4.475L57.717,165.196z"/>
<path id="path266" fill="#E5E5B2" d="M89.666,162.907c-0.818-1.23-1.465-2.093-1.784-2.293c-1.479-0.924,0.555-0.739,1.109-0.739
	c0,0,8.136,0,9.061,0.37c0,0,0.258,1.101,0.594,2.766C98.645,163.011,93.692,162.023,89.666,162.907z"/>
<path id="path270" fill="#CC7226" d="M115.985,95.077c13.611,1.944,26.14-15.555,27.005-20.308
	c0.863-4.753-4.105-10.586-4.105-10.586c0.648-1.512-1.729-8.425-4.32-12.962c-2.592-4.537-10.4-4.059-19.012-4.537
	c-7.777-0.432-16.852,11.018-17.499,11.882s2.377,19.66,3.024,22.469c0.648,2.809-0.647,15.771-0.647,15.771
	C117.242,92.338,102.375,93.133,115.985,95.077z"/>
<path id="path274" fill="#EA8E51" d="M98.411,58.885c-0.636,0.848,2.334,19.302,2.971,22.059c0.636,2.758-0.637,15.484-0.637,15.484
	c16.042-4.36,1.909-3.605,15.271-1.696c13.363,1.909,25.666-15.272,26.515-19.939C143.379,70.127,138.5,64.4,138.5,64.4
	c0.637-1.485-1.697-8.273-4.242-12.727s-10.209-3.984-18.666-4.454C107.956,46.795,99.047,58.037,98.411,58.885z"/>
<path id="path278" fill="#EFAA7C" d="M98.768,59.203c-0.624,0.833,2.29,18.945,2.915,21.651c0.624,2.706-0.625,15.197-0.625,15.197
	c15.419-4.497,1.874-3.539,14.988-1.666c13.116,1.874,25.192-14.988,26.024-19.569c0.832-4.58-3.955-10.2-3.955-10.2
	c0.623-1.457-1.666-8.12-4.164-12.491s-10.021-3.911-18.321-4.372C108.136,47.337,99.393,58.371,98.768,59.203z"/>
<path id="path282" fill="#F4C6A8" d="M99.125,59.521c-0.612,0.817,2.247,18.588,2.859,21.243c0.613,2.654-0.612,14.91-0.612,14.91
	c14.453-4.438,1.838-3.473,14.706-1.634c12.868,1.838,24.714-14.706,25.533-19.2c0.816-4.494-3.881-10.009-3.881-10.009
	c0.611-1.43-1.635-7.966-4.086-12.255c-2.449-4.29-9.831-3.837-17.974-4.29C108.317,47.879,99.739,58.705,99.125,59.521z"/>
<path id="path286" fill="#F9E2D3" d="M99.483,59.839c-0.601,0.801,2.204,18.23,2.805,20.834c0.602,2.604-0.601,14.624-0.601,14.624
	c13.683-4.38,1.803-3.406,14.423-1.604c12.621,1.804,24.24-14.423,25.041-18.831c0.803-4.407-3.805-9.815-3.805-9.815
	c0.6-1.402-1.604-7.812-4.008-12.02s-9.642-3.764-17.628-4.207C108.498,48.421,100.084,59.039,99.483,59.839z"/>
<path id="path290" fill="#FFFFFF" d="M116.141,93.349c12.373,1.768,23.765-14.141,24.55-18.461c0.785-4.321-3.732-9.623-3.732-9.623
	c0.59-1.375-1.57-7.66-3.928-11.784s-9.454-3.689-17.283-4.124c-7.07-0.393-15.318,10.016-15.908,10.801
	c-0.589,0.786,2.161,17.873,2.75,20.425c0.589,2.554-0.589,14.337-0.589,14.337C114.521,90.697,103.769,91.581,116.141,93.349z"/>
<path id="path294" fill="#CCCCCC" d="M138.924,76.655c0,0-13.65,3.731-19.345,2.945c0,0-7.758-3.24-12.078,7.464
	c0,0-1.768,3.535-2.75,4.517C103.768,92.563,138.924,76.655,138.924,76.655z"/>
<path id="path298" d="M140.789,75.575c0,0-14.239,5.989-19.148,5.793c0,0-8.053-2.259-12.177,4.91c0,0-4.124,4.517-5.695,5.303
	c0,0-0.196,0.785,2.946-1.179l5.106,2.554c0,0,7.267,4.713,11.979-3.143c0,0,1.964-5.499,1.964-6.481s10.411-3.731,11.196-3.928
	S140.986,77.146,140.789,75.575z"/>
<path id="path302" fill="#99CC32" d="M117.516,93.208c-3.374,0-7.485-1.897-7.485-4.966c0-3.067,4.111-6.144,7.485-6.144
	c3.376,0,6.111,2.487,6.111,5.555C123.627,90.722,120.891,93.208,117.516,93.208z"/>
<path id="path306" fill="#659900" d="M115.738,85.017c-2.38,0.354-4.878,1.093-4.843,0.986c0.756-2.269,3.879-3.904,6.621-3.904
	c2.109,0,3.97,0.971,5.067,2.448C122.583,84.548,119.973,84.386,115.738,85.017z"/>
<path id="path310" fill="#FFFFFF" d="M121.641,84.904c0,0-2.16-1.571-2.16-0.491C119.481,84.413,121.249,86.573,121.641,84.904z"/>
<path id="path314" d="M116.731,88.894c-1.227,0-2.221-0.995-2.221-2.223c0-1.227,0.994-2.221,2.221-2.221
	c1.228,0,2.222,0.994,2.222,2.221C118.953,87.898,117.958,88.894,116.731,88.894z"/>
<path id="path318" fill="#CC7226" d="M65.667,82.351c0,0-1.57-10.409-0.393-12.569c0,0,5.303-4.91,5.106-6.678
	c0,0-0.196-8.838-0.785-9.23c-0.59-0.393-4.321-3.339-7.267-0.196c0,0-5.106,8.838-4.714,11.98v0.981c0,0-3.731-0.196-4.518,0.786
	c0,0-0.589,2.553-1.178,2.749c0,0-1.375,1.179-0.394,2.554c0,0-0.981,1.178-0.785,3.142l3.731,1.965c0,0,0.981,7.07,6.285,9.623
	C63.132,88.601,64.686,85.297,65.667,82.351z"/>
<path id="path322" fill="#FFFFFF" d="M65.176,81.447c0,0-1.414-9.368-0.353-11.312c0,0,4.772-4.419,4.596-6.01
	c0,0-0.177-7.954-0.707-8.308s-3.889-3.005-6.54-0.177c0,0-4.596,7.954-4.242,10.782v0.884c0,0-3.358-0.177-4.065,0.706
	c0,0-0.53,2.298-1.061,2.476c0,0-1.237,1.06-0.354,2.298c0,0-0.884,1.06-0.707,2.827l3.358,1.768c0,0,0.884,6.363,5.656,8.661
	C62.894,87.071,64.293,84.099,65.176,81.447z"/>
<path id="path326" fill="#EB955C" d="M69.375,54.359c-0.535-0.422-4.213-3.255-7.085-0.191c0,0-4.979,8.617-4.596,11.681v0.957
	c0,0-3.638-0.191-4.404,0.766c0,0-0.574,2.49-1.148,2.682c0,0-1.341,1.148-0.383,2.489c0,0-0.958,1.148-0.767,3.063l3.639,1.915
	c0,0,0.957,6.894,6.127,9.383c2.314,1.114,3.83-2.106,4.788-4.979c0,0-1.532-10.148-0.384-12.255c0,0,5.171-4.787,4.979-6.511
	C70.141,63.359,69.949,54.742,69.375,54.359z"/>
<path id="path330" fill="#F2B892" d="M69.154,54.845c-0.481-0.452-4.104-3.172-6.903-0.187c0,0-4.851,8.396-4.478,11.381v0.933
	c0,0-3.545-0.187-4.292,0.746c0,0-0.56,2.426-1.119,2.612c0,0-1.306,1.119-0.373,2.426c0,0-0.933,1.119-0.747,2.985l3.546,1.865
	c0,0,0.933,6.717,5.97,9.143c2.256,1.086,3.731-2.053,4.664-4.852c0,0-1.492-9.889-0.373-11.94c0,0,5.038-4.664,4.851-6.344
	C69.9,63.614,69.713,55.218,69.154,54.845z"/>
<path id="path334" fill="#F8DCC8" d="M68.933,55.332c-0.428-0.481-3.997-3.088-6.722-0.182c0,0-4.724,8.175-4.36,11.082v0.908
	c0,0-3.452-0.182-4.179,0.727c0,0-0.545,2.362-1.09,2.544c0,0-1.271,1.09-0.363,2.361c0,0-0.908,1.09-0.727,2.906l3.452,1.817
	c0,0,0.908,6.54,5.812,8.901c2.196,1.058,3.634-1.998,4.542-4.723c0,0-1.453-9.629-0.363-11.627c0,0,4.905-4.542,4.723-6.177
	C69.66,63.87,69.478,55.695,68.933,55.332z"/>
<path id="path338" fill="#FFFFFF" d="M65.176,81.398c0,0-1.414-9.319-0.353-11.264c0,0,4.772-4.419,4.596-6.01
	c0,0-0.177-7.954-0.707-8.308c-0.374-0.511-3.889-3.005-6.54-0.177c0,0-4.596,7.954-4.242,10.782v0.884c0,0-3.358-0.177-4.065,0.706
	c0,0-0.53,2.298-1.061,2.476c0,0-1.237,1.06-0.354,2.298c0,0-0.884,1.06-0.707,2.827l3.358,1.768c0,0,0.884,6.363,5.656,8.661
	C62.894,87.071,64.293,84.049,65.176,81.398z"/>
<path id="path342" fill="#CCCCCC" d="M63.655,78.324c0,0-10.605-5.008-11.048-5.4c0,0,4.468,4.026,4.861,4.026
	C57.861,76.95,63.655,78.324,63.655,78.324z"/>
<path id="path346" d="M55.258,75.28c0,0,9.035,1.768,9.035,3.928c0,1.43-0.12,8.019-2.75,7.267
	C57.419,85.297,59.187,78.227,55.258,75.28z"/>
<path id="path350" fill="#99CC32" d="M59.383,77.146c0,0,4.408,0.725,4.909,2.062c0.295,0.786,0.62,4.865-2.062,5.401
	C59.996,85.057,58.901,80.038,59.383,77.146z"/>
<path id="path354" d="M101.606,98.037c-0.244-0.855,0.4-0.791,1.279-1.055c0.981-0.295,6.972-2.16,7.364-3.437
	c0.394-1.277,6.874,0.884,6.874,0.884c0.885,0.393,3.044,1.669,3.044,1.669c2.357,0.589,5.598,0.785,5.598,0.785
	c1.179,0.491,2.848,1.866,2.848,1.866c7.168,5.008,13.256,1.473,13.256,1.473c9.82-3.24,6.875-11.686,6.875-11.686
	c-1.473-4.419,0.098-6.088,0.098-6.088c0.1-1.866,3.633,1.276,3.633,1.276c1.277,2.062,1.672,4.518,1.672,4.518
	c3.928,5.499,2.258-3.241,2.258-3.241c0.098-0.491-1.277-2.258-1.277-2.848c0-0.589-0.885-2.259-0.885-2.259
	c-1.473-1.669-0.293-5.106-0.293-5.106c0.883-6.775-0.197-5.892-0.197-5.892c-0.59-0.884-5.105,4.026-5.105,4.026
	c-1.08,1.669-4.027,2.454-4.027,2.454c-1.373,0.885-3.043,0.197-3.043,0.197c-1.277-0.197-4.027,3.24-4.027,3.24
	c1.375-0.099,2.555,2.062,3.732,2.16c1.178,0.099,2.061-1.178,2.848-1.473c0.785-0.295,2.16,2.554,2.16,2.554
	c0.195,1.276-2.553,3.633-2.553,3.633c-0.197,2.259-0.982,1.473-0.982,1.473c-1.473-0.294-2.062,1.571-2.553,3.83
	c-0.492,2.259-2.555,2.455-2.555,2.455c-0.785,3.633-1.375,2.16-1.375,2.16c-0.098-2.749-3.043,0.099-3.043,0.099
	c-0.59,0.981-2.848-0.099-2.848-0.099c-3.339-0.981-2.161-1.964-2.161-1.964c0.883-1.08,6.383,0,6.383,0
	c1.08-0.785-2.85-2.75-2.85-2.75c-0.293-0.884,0.197-3.044,0.197-3.044c0.59-1.571,3.928-4.32,3.928-4.32
	c4.615-0.59,3.242-1.375,3.242-1.375c-3.045-2.554-5.893,1.178-5.893,1.178c-1.08,3.045-9.624,10.409-9.624,10.409
	c-2.357,1.67-1.08-1.669-3.044,0c-1.964,1.67-12.078-2.749-12.078-2.749c-5.678-0.586-7.019,7.143-8.752,5.611
	C99.731,96.604,102.391,100.787,101.606,98.037z"/>
<path id="path358" d="M197.254,16.361c0,0-12.57,3.928-13.943,13.159c0,0-1.18,11.194,8.836,19.836c0,0,0.197,3.142,1.18,4.713
	c0,0-0.787,2.357,8.443-1.375l13.355-4.125c0,0,3.143-1.178,5.695-5.499s10.016-13.551,8.248-25.924c0,0,0.59-5.499-2.355-5.695
	c0,0-4.125-0.786-7.66,2.946c0,0-3.34,1.571-4.518,1.375L197.254,16.361z"/>
<path id="path362" d="M224.072,15.875c0,0,1.031-4.384-1.346-2.008c0,0-3.457,2.809-7.129,2.809c0,0-7.131,1.08-9.289,7.561
	c0,0-1.945,13.178,1.943,15.987c0,0,2.377,3.672,5.834,0.432C217.543,37.415,225.152,22.572,224.072,15.875z"/>
<path id="path366" fill="#323232" d="M223.889,16.051c0,0,1.025-4.293-1.307-1.96c0,0-3.395,2.758-7,2.758c0,0-7,1.061-9.121,7.424
	c0,0-1.908,12.938,1.908,15.696c0,0,2.334,3.606,5.729,0.424S224.949,22.626,223.889,16.051z"/>
<path id="path370" fill="#666666" d="M223.705,16.227c0,0,1.021-4.202-1.27-1.912c0,0-3.33,2.706-6.869,2.706
	c0,0-6.869,1.041-8.951,7.287c0,0-1.875,12.699,1.873,15.405c0,0,2.289,3.539,5.621,0.417
	C217.439,37.007,224.746,22.68,223.705,16.227z"/>
<path id="path374" fill="#999999" d="M223.521,16.402c0,0,1.016-4.11-1.23-1.864c0,0-3.268,2.655-6.74,2.655
	c0,0-6.74,1.021-8.783,7.149c0,0-1.838,12.459,1.838,15.115c0,0,2.248,3.473,5.516,0.409S224.543,22.734,223.521,16.402z"/>
<path id="path378" fill="#CCCCCC" d="M223.338,16.578c0,0,1.012-4.02-1.191-1.815c0,0-3.205,2.604-6.611,2.604
	c0,0-6.611,1.002-8.615,7.011c0,0-1.801,12.22,1.803,14.824c0,0,2.205,3.406,5.41,0.401
	C217.338,36.598,224.34,22.789,223.338,16.578z"/>
<path id="path382" fill="#FFFFFF" d="M223.154,16.754c0,0,1.006-3.928-1.154-1.768c0,0-3.143,2.553-6.48,2.553
	c0,0-6.482,0.982-8.445,6.874c0,0-1.768,11.98,1.768,14.533c0,0,2.16,3.338,5.303,0.393S224.137,22.842,223.154,16.754z"/>
<path id="path386" fill="#992600" d="M119.284,116.523c0,0-10.017-9.427-13.944-9.819c0,0-16.89-1.965-24.157,6.873
	c0,0,8.642-10.016,22.193-7.266c0,0-10.605-2.161-16.694-0.59c0,0-8.248,0-12.962,6.874l-1.375,2.356c0,0,1.965-7.267,10.998-10.213
	c0,0,11.194-2.356,16.498,0c0,0-10.605-3.338-15.516-2.356c0,0-14.926-1.178-21.211,11.784c0,0,1.965-7.07,9.231-10.605
	c0,0,6.677-4.321,16.693-2.946c0,0,7.07,1.571,9.624,2.75c2.553,1.178,1.964-0.197-2.161-2.554c0,0-2.75-4.91-9.623-4.714
	c0,0-21.015,1.768-26.121,7.66c0,0,6.678-5.499,11.784-6.874c0,0,10.998-3.928,15.122-3.535c0,0,12.177,0.491,15.908-1.474
	c0,0-5.499,2.455-3.928,4.026c1.57,1.571,4.909,5.303,4.909,5.893c0,0.589,11.883,11.44,13.65,13.6L119.284,116.523z"/>
<path id="path390" fill="#CCCCCC" d="M187.236,211.776c0,0-7.609-17.922-13.746-22.587c0,0,12.766,7.856,14.482,16.694
	C187.975,205.884,187.975,210.794,187.236,211.776z"/>
<path id="path394" fill="#CCCCCC" d="M210.314,215.458c0,0-13.012-27.004-22.096-38.787c0,0,21.359,18.412,23.814,31.423
	l0.244,2.701l-1.473-1.228C210.805,209.566,210.559,213.985,210.314,215.458z"/>
<path id="path398" fill="#CCCCCC" d="M238.055,191.646c0,0-30.688-29.214-31.424-30.441c0,0,29.705,32.405,31.178,36.088
	C237.809,197.292,236.828,192.873,238.055,191.646z"/>
<path id="path402" fill="#CCCCCC" d="M145.504,213.003c0,0,9.574-25.531,18.902-14.484c0,0,7.365,4.91,7.119,6.383
	c0,0-1.963-3.191-10.803-2.945C160.723,201.956,151.395,200.483,145.504,213.003z"/>
<path id="path406" fill="#CCCCCC" d="M239.037,150.402c0,0-22.096-13.994-25.777-14.73c-5.797-1.159,24.305,14.238,26.76,19.394
	C240.02,155.066,241,153.839,239.037,150.402z"/>
<path id="path410" d="M165.045,202.742c0,0,10.018-0.982,13.355-4.32l2.16,1.768l8.641-18.855l1.768,2.555
	c0,0,7.07-7.268,6.678-11.195s6.285,2.946,6.285,2.946s-0.393-5.695,3.143-2.357c0,0-1.178-7.659,2.945-3.731
	c0,0-5.172-14.807,5.893-2.16c2.75,3.142,0.59-0.196,0.59-0.196s-12.766-23.568-2.16-16.498c0,0,0.98-11.194,0.393-13.354
	c-0.59-2.161-1.572-13.159-3.928-15.713c-2.357-2.553,0.195-3.338,2.945-0.784c0,0-5.5-11.784,0.982-5.893
	c0,0-1.768-7.463-3.928-8.838c0,0-2.75-8.445,4.713-3.143c0,0-2.16-6.088-3.732-7.659c0,0-5.695-13.552-2.16-11.194l2.16,1.767
	c0,0-3.338-6.873-0.195-4.713s3.143,1.964,3.143,1.964s-10.41-16.301-0.393-7.659c0,0-4.006-6.834-5.695-10.213
	c0,0-9.23-10.017-2.162-6.874l2.357,0.786c0,0-4.32-4.91-8.248-5.695s1.178-3.928,4.32-2.946s10.803,4.713,10.803,4.713
	s6.285,9.23,8.248,9.428c0,0-9.82-3.732-6.875,0.195c0,0,7.07,6.874,3.535,6.678c0,0-2.945,3.535-0.588,7.856
	c0,0-9.064-9.03-1.768,3.534l3.338,8.053c0,0-11.979-12.177-6.48-1.375c0,0,8.445,11.588,9.428,11.784
	c0.98,0.196,3.143,4.517,3.143,4.517l-2.162-0.981l2.553,4.32c0,0-5.498-5.892-2.553,0.59l2.75,7.069c0,0-10.016-10.801-3.338,3.732
	c0,0-8.053-2.554-3.732,5.892c0,0-0.785,7.856-0.59,10.41c0.197,2.554,0.787,16.497-1.373,20.425
	c-2.162,3.929,2.945,13.355,3.928,15.319c0.98,1.964,2.75,7.267-1.572,2.75c-4.32-4.518-2.16-1.768-1.178,2.553
	c0.982,4.321,3.928,11.98,3.535,14.73c0,0-0.588,0.589-2.16-1.178c0,0-7.268-11.195-6.48-4.125c0,0-0.59,3.928-2.162,8.249
	c0,0-1.57,5.302-1.57,0.981c0,0-1.57-8.249-2.945-4.517c-1.375,3.731-3.143,6.678-4.518,7.855s-3.928-10.017-4.518-4.91
	c0,0-5.893-6.088-8.248,1.965l-5.695,8.052c0,0-0.197-6.088-0.785-3.142C184.881,201.957,170.15,204.902,165.045,202.742z"/>
<path id="path414" d="M148.154,27.556c0,0-5.695-3.928-7.66-3.731c-1.963,0.196,13.553-4.321,33.781,9.23
	c0,0,2.357,1.375,4.125,1.178c0,0,1.57,1.179,0.195,2.946c0,0-4.32,4.713,1.18,10.212c0,0,9.033,3.339,6.283-0.982
	c0,0,5.303,1.964,6.482,3.928c1.178,1.964,0.588,0,0.588,0s-3.143-3.535-6.088-6.088c0,0-2.553-0.982-3.928-5.106
	s-2.553-9.035-0.393-10.605c0,0-1.965,2.16-1.57,0.196c0.393-1.964,2.16-3.731,2.945-3.928c0.785-0.196,8.838-7.954,12.176-8.15
	c0,0-4.516,0.688-5.99,0.196c-1.473-0.491-14.533-6.088-17.479-6.678c0,0-8.248-3.24-2.357-2.258c0,0,17.578,1.866,26.514,8.347
	c0,0-3.535-4.125-12.568-7.561c0,0-10.9-6.187-28.184-3.731c0,0-8.74,1.571-12.568,2.455c0,0-1.277-0.294-1.572-0.491
	c-0.295-0.196-6.088-4.615-19.64-1.178c0,0-8.347,2.258-12.569,4.615c0,0-7.463,0.589-9.229,2.16c0,0-9.133,7.168-10.114,7.562
	c-0.982,0.393-6.58,4.124-6.973,4.321c0,0,12.078-3.241,13.257-4.419s9.722-2.455,10.9-1.768c1.178,0.688,5.302,0.393,0.589,0.688
	c0,0,37.12,7.267,37.512,8.249S148.154,27.556,148.154,27.556z"/>
<path id="path418" fill="#CC7226" d="M183.211,23.039c0,0-5.008-3.634-5.99-3.634c-0.98,0-7.07-5.008-9.131-4.812
	c-2.062,0.197-8.053-4.713-21.506-0.688c0,0-0.295-0.982,1.473-1.375c0,0,3.143-1.08,3.338-1.375c0,0,9.918-2.062,13.453-0.295
	c0,0,4.518,1.277,7.562,4.321c0,0,5.498,1.571,7.07,1.081c0,0,4.32,1.08,4.518,1.964c0,0,2.848,1.473,1.963,2.75
	C185.961,20.977,186.158,21.762,183.211,23.039z"/>
<path id="path422" fill="#CC7226" d="M177.088,22.003c0.396,0.31,0.896,0.358,1.193,0.755c0.115,0.154-0.027,0.314-0.182,0.362
	c-0.512,0.156-1.029-0.124-1.59,0.165c-0.197,0.102-0.514,0.012-0.785-0.061c-0.801-0.217-1.699-0.229-2.529,0.109
	c-0.975-0.554-2.133-0.268-3.156-0.759c-0.027-0.013-0.137,0.157-0.174,0.144c-1.494-0.562-3.332-0.423-4.525-1.544
	c-1.191-0.203-2.35-0.429-3.541-0.763c-0.893-0.25-1.586-0.736-2.381-1.144c-0.676-0.348-1.391-0.604-2.145-0.787
	c-0.914-0.222-1.814-0.167-2.742-0.422c-0.047-0.012-0.141,0.157-0.182,0.144c-0.158-0.053-0.301-0.339-0.385-0.313
	c-0.826,0.256-1.557-0.221-2.373-0.053c-0.578-0.601-1.428-0.48-2.186-0.698c-1.455-0.417-3.004,0.208-4.492-0.284
	c2.02-0.904,4.322-0.299,6.316-1.315c1.143-0.582,2.449-0.041,3.711-0.414c0.24-0.071,0.578-0.17,0.775,0.158
	c0.066-0.066,0.156-0.184,0.184-0.17c1.203,0.568,2.34,1.194,3.559,1.717c0.168,0.071,0.428-0.042,0.553,0.057
	c0.746,0.597,1.699,0.546,2.381,1.146c0.834-0.246,1.715-0.06,2.564-0.366c0.037-0.013,0.152,0.154,0.168,0.144
	c0.555-0.367,1.123-0.234,1.561-0.085c0.166,0.056,0.492,0.178,0.641,0.214c0.553,0.136,0.973,0.371,1.553,0.461
	c0.057,0.009,0.146-0.158,0.182-0.145c0.551,0.215,1.062,0.188,1.385,0.759c0.066-0.066,0.146-0.183,0.188-0.17
	c0.504,0.166,0.824,0.537,1.363,0.655c0.238,0.052,0.539,0.359,0.822,0.446c1.174,0.359,2.08,1.11,3.156,1.549
	C176.348,21.645,176.777,21.76,177.088,22.003z"/>
<path id="path426" fill="#CC7226" d="M139.461,15.017c-1.234-0.847-2.398-1.39-3.598-2.267c-0.088-0.065-0.266,0.018-0.365-0.042
	c-0.492-0.299-0.93-0.584-1.412-0.926c-0.264-0.187-0.666-0.182-0.916-0.309c-1.25-0.634-2.541-0.908-3.771-1.495
	c0.334-0.313,0.885-0.193,1.178-0.589c0.096,0.138,0.213,0.277,0.387,0.183c0.824-0.443,1.732-0.519,2.555-0.475
	c0.838,0.045,1.682,0.195,2.553,0.328c0.15,0.023,0.248,0.28,0.408,0.328c1.094,0.326,2.266,0.068,3.307,0.479
	c0.781,0.309,1.553,0.713,2.16,1.339c0.125,0.127-0.035,0.275-0.172,0.371c0.189-0.054,0.324,0.047,0.377,0.201
	c0.043,0.118,0.043,0.266,0,0.383c-0.053,0.153-0.191,0.203-0.375,0.228c-0.691,0.093,0.18-0.584-0.164-0.364
	c-0.625,0.4-0.26,1.09-0.625,1.712c-0.137-0.095-0.25-0.202-0.195-0.393c0.113,0.256-0.182,0.399-0.264,0.554
	C140.338,14.62,139.896,15.314,139.461,15.017z"/>
<path id="path430" fill="#CC7226" d="M123.505,18.625c-1.548-0.39-3.046-0.333-4.526-0.96c-0.033-0.014-0.143,0.156-0.174,0.144
	c-0.671-0.292-1.121-0.766-1.65-1.28c-0.448-0.436-1.262-0.246-1.888-0.485c-0.159-0.061-0.259-0.312-0.406-0.331
	c-0.599-0.077-1.054-0.543-1.566-0.824c1.146-0.39,2.33-0.375,3.539-0.563c0.056-0.009,0.127,0.148,0.192,0.148
	c0.066,0,0.13-0.108,0.196-0.174c0.096,0.138,0.244,0.298,0.37,0.173c0.269-0.265,0.542-0.172,0.807-0.152
	c0.071,0.005,0.133,0.154,0.197,0.154c0.066,0,0.132-0.153,0.196-0.153c0.066,0,0.132,0.153,0.196,0.153
	c0.067,0,0.131-0.108,0.196-0.174c0.341,0.384,0.774,0.112,1.178,0.2c0.51,0.111,0.642,0.675,1.169,0.821
	c2.314,0.64,4.346,1.693,6.488,2.718c0.15,0.072,0.254,0.194,0.199,0.385c0.131,0,0.285-0.043,0.379,0.022
	c0.519,0.359,1.031,0.628,1.373,1.167c0.105,0.167-0.057,0.366-0.17,0.341C127.626,19.465,125.66,19.166,123.505,18.625z"/>
<path id="path434" fill="#CC7226" d="M116.701,40.332c-0.782-0.599-1.068-1.596-1.622-2.476c-0.105-0.167,0.028-0.321,0.185-0.365
	c0.274-0.078,0.541,0.156,0.742,0.256c0.857,0.423,1.61,1.033,2.591,1.101c0.978,1.097,3.068,1.286,3.072,2.946
	c0.001,0.422-0.701-0.029-0.911,0.393c-1.204-0.492-2.377-0.441-3.545-1.162C116.909,40.838,117.071,40.616,116.701,40.332z"/>
<path id="path438" fill="#CC7226" d="M103.179,14.517c0.066,0,3.519,0.115,3.511,0.171c-0.022,0.152-3.818,0.667-3.996,0.583
	c-0.081-0.037-3.77,1.156-3.835,1.09C98.991,16.295,103.049,14.517,103.179,14.517z"/>
<path id="path442" d="M110.741,19.307c0,0-7.267,0.884-9.427,1.473c-2.161,0.589-11.293,4.321-12.766,5.303
	c0,0-6.579,2.651-14.926,12.471c0,0,3.731-1.669,4.812-3.044c0,0,6.678-6.187,6.579-4.91c0,0,5.99-4.223,5.695-3.143
	c0,0,11.98-5.499,10.998-3.928c0,0,10.605-2.259,10.114-1.277c0,0,9.23,2.161,7.856,2.259c0,0-2.848,0.589,0.295,2.356
	c0,0-1.67,2.161-4.321,0.197s-1.178-0.884-3.633-0.393c0,0-1.277,0.393-3.535-1.571c0,0-2.75-2.259-7.07-0.491
	c0,0-15.024,6.187-16.007,6.481c0,0-1.768,1.375-2.946,3.142c0,0-2.848,2.16-4.32,2.848c0,0-6.284,5.695-6.874,6.383
	c0,0-1.669,2.553-2.062,2.75c0,0,3.143-1.865,4.125-2.848c0,0,6.874-4.91,9.524-5.303c0,0,2.161-1.473,2.554-2.16
	c0,0,7.07-4.517,9.132-4.517c0,0,4.518,2.553,5.696-0.884c0,0,2.847-0.884,5.597-0.295c0,0,1.571-1.277,1.178-2.356
	c0,0,0.786-0.884,1.277,0.981c0,0,1.67,1.768,4.026,0.786c0,0,1.964-0.098,0.982,1.08c0,0-2.161,1.866-7.955,1.964
	c0,0-6.088,0.294-14.141,4.026c0,0-14.631,5.106-19.148,10.212c0,0-3.143,4.321-5.794,4.91c0,0-2.848,0.393-5.793,4.026
	c0,0,4.812-2.848,9.23-2.848c0,0,1.964-1.178,0.099,0.589c0,0-1.768,3.731-0.982,6.383c0,0-0.295,2.553-0.688,3.338
	c0,0-3.829,6.285-3.829,7.464c0,1.178,0.589,5.99,0.785,6.284c0.196,0.295-0.491-0.785,1.375,0.393
	c1.865,1.179,3.24,1.965,3.633,3.339c0.393,1.375-0.981-2.651-1.08-3.535c-0.098-0.884-2.16-4.419-1.768-5.597
	c0,0,0.491,0.491,0.884,1.178c0,0-0.294-0.295,0-2.062c0,0,0.393-2.553,1.08-4.124s1.67-3.437,1.866-3.83
	c0.196-0.393,0.196-3.24,0.884-1.964l1.669,1.276c0,0-1.375-1.276-0.295-2.356c0,0-0.491-2.75,0.394-4.026
	c0,0,3.437-4.125,4.223-4.616c0.785-0.491,0.098-0.294,0.098-0.294s2.946-2.062,0.099-1.277c0,0-1.965,0.786-3.438,0.786
	c0,0-3.731,0.982-1.767-1.081c1.964-2.062,6.873-4.713,8.739-4.615l0.394,0.786l5.498-1.178l-0.589,0.393
	c0,0-0.098-0.099,1.964-0.295c2.062-0.196,4.91,0.491,5.598-0.393c0.688-0.884,2.357-1.375,2.161-0.688
	c-0.196,0.688-0.295,1.669-0.295,1.669s2.454-2.848,2.16-1.768c-0.295,1.08-4.32,3.633-5.009,6.678l5.106-4.026l1.768-1.473
	c0,0,1.768,1.08,1.866,0.295c0.098-0.786,2.356-3.633,2.945-3.535c0.59,0.098,1.571-1.277,1.474,0
	c-0.099,1.276,3.633,3.928,3.633,3.928s1.571-0.884,2.259-0.196s2.75-9.722,2.75-9.722l12.274-5.205l21.408-1.669l-8.348-3.338
	L110.741,19.307z"/>
<path id="path446" stroke="#4C0000" stroke-width="0.5562" d="M119.677,117.015c0,0-7.365-8.249-11.489-9.525
	c0,0-6.58-3.339-18.658,0.491"/>
<path id="path450" stroke="#4C0000" stroke-width="0.5562" d="M106.617,106.802c0,0-12.373-3.928-19.936-1.865
	c0,0-9.034,0.981-13.158,7.757"/>
<path id="path454" stroke="#4C0000" stroke-width="0.5562" d="M104.849,106.213c0,0-8.347-3.535-15.614-4.615
	c0,0-8.15-1.276-16.301,2.259c0,0-5.99,2.945-8.641,7.954"/>
<path id="path458" stroke="#4C0000" stroke-width="0.5562" d="M105.34,106.409c0,0-7.562-5.401-8.053-6.088
	c0,0-3.437-5.401-9.82-5.598c0,0-10.507,0.393-18.952,4.321"/>
<path id="path462" d="M104.699,101.993c0.758,0.719,13.996,14.924,13.996,14.924c17.284,17.971,3.535,1.178,3.535,1.178
	c-3.731-2.357-8.249-11.588-8.249-11.588c-0.589-1.375,6.874,3.535,6.874,3.535c1.964,0.393,8.641,9.82,8.641,9.82
	c-3.338-1.179-0.981,2.356-0.981,2.356c1.374,0.982,11.391,8.643,11.391,8.643c1.768,1.964,3.732,2.749,3.732,2.749
	c6.873-2.553,3.73,3.929,3.73,3.929c1.178,3.339,3.928-2.357,3.928-2.357c5.5-8.249-2.553-7.07-2.553-7.07
	c-14.73,1.374-18.068-6.482-18.068-6.482c-1.18-1.178,3.141,0,3.141,0c4.125,0.982-3.535-6.088-3.535-6.088
	c1.18,0,5.697,3.339,5.697,3.339c5.105,4.517,6.088,3.535,6.088,3.535c8.838-4.321,13.945-0.59,13.945-0.59
	c0.98,0.786-1.768,4.125-0.982,6.679s3.143,8.642,3.143,8.642c-1.18,0.785-0.982,6.089-0.982,6.089
	c8.248,11.391,3.535,10.409,3.535,10.409c-7.66-0.197-0.393,3.534-0.393,3.534c1.57,0.982,5.893,4.518,5.893,4.518
	c-1.375-0.589-2.16,1.964-2.16,1.964c2.355,1.964,0.98,4.321,0.98,4.321c-2.945,0.589-3.535,2.553-3.535,2.553
	c3.34,3.929-1.57,4.125-1.57,4.125c1.768,2.16-0.59,8.052-0.59,8.052c-2.357,0-5.498,2.75-5.498,2.75
	c1.178,2.357-3.928,5.106-3.928,5.106c-4.125,0.785-2.75,4.124-2.75,4.124c-3.928,2.945-5.105,10.802-5.105,10.802
	c-0.395,5.106-1.572,6.678,0.98,5.695c2.555-0.982,2.162-7.07,2.162-7.07c-2.357-7.659,18.656-15.516,18.656-15.516
	c1.965-0.785,2.357-3.339,2.357-3.339c0.982,0.196,5.303,3.928,5.303,3.928c3.732,5.499,3.928,0.982,3.928,0.982
	c0.59-1.768-0.195-4.714-0.195-4.714c2.945-10.605-3.928-13.748-3.928-13.748c-4.91-16.497,1.963-12.373,1.963-12.373
	c1.375,2.75,6.678,5.303,6.678,5.303l1.768-1.178c-0.785-2.357,3.338-5.303,3.338-5.303c1.375,3.143,4.322-0.786,4.322-0.786
	c1.768-11.979,7.855-4.909,7.855-4.909c1.965,0.589,2.553-2.75,2.553-2.75c1.768-5.105,0-11.784,0-11.784
	c1.768-0.196,6.482,2.75,6.482,2.75c1.375-1.768-3.143-10.017-1.18-8.837c1.965,1.178,4.125,1.964,4.125,1.964
	c0.393-0.981-4.518-7.07-4.518-7.07c-2.16-1.376-4.713-11.392-4.713-11.392c3.535,1.768-1.375-5.695-1.375-5.695
	c0-1.571,2.947-7.07,2.947-7.07c-0.393-3.339,0-3.143,0-3.143c1.375,0.589,5.303,1.375,1.963-1.768
	c-3.338-3.143,0.393-5.499,0.393-5.499c2.162-1.375-4.516-1.179-4.516-1.179c-2.555-2.16-2.357-4.124-2.357-4.124
	c3.928,0.981-3.143-6.088-4.32-7.855s3.535-4.321,3.535-4.321c6.48-1.768,0.785-3.339,0.785-3.339
	c-9.623,0.196-4.32-5.106-4.32-5.106c2.945,0.197,2.16-0.981,2.16-0.981c-2.553-0.589-7.268-3.731-7.268-3.731
	c-1.963-1.768-0.195-1.375-0.195-1.375c8.248,0.589-5.893-4.91-5.893-4.91c3.928,0-4.91-5.106-4.91-5.106
	c-0.98-0.786-2.553-4.517-2.553-4.517c-2.945-2.553-5.303-5.892-5.303-5.892c-0.195-2.16-2.553-4.517-2.553-4.517
	c-5.695-6.678-8.445-6.481-8.445-6.481c-7.268-1.767-9.82-1.375-9.82-1.375l-25.925,2.16c-12.962,6.285-9.133,16.596-9.133,16.596
	c3.143,4.124,7.66,2.258,7.66,2.258c2.258-3.044,7.954-1.964,7.954-1.964c10.016,1.571,8.741-0.196,8.741-0.196
	c-1.18-2.259-9.133-5.303-9.232-5.597c-0.098-0.295-4.419-1.964-4.419-1.964c-1.473-0.589-3.633-5.106-3.633-5.106
	c-1.571-1.669,6.187,1.178,6.187,1.178c-0.59,0.491,3.044,2.455,3.044,2.455c8.543-0.491,13.748,4.812,13.748,4.812
	c5.303,8.15,5.4,4.125,5.4,4.125c1.375-4.615-4.42-15.024-4.42-15.024c0.197-0.982,4.225,2.259,4.225,2.259
	c0.686-0.982,1.08,1.865,1.08,1.865c0.098,1.178,1.963,5.106,1.963,5.106c1.375,6.383,3.143,2.75,3.143,2.75l2.26,4.615
	c0.686,1.277-2.26,5.008-2.26,5.008c-0.098,1.375,0.295,1.276-2.455,5.008c-2.75,3.732-1.08,5.892-1.08,5.892
	c-0.688,3.24,3.633,3.044,3.633,3.044c1.277,1.08,2.947,1.08,2.947,1.08c0.883,0.982,2.061,0.688,2.061,0.688
	c0.785-1.865,3.83-0.884,3.83-0.884c0.688-1.179,4.713-1.375,4.713-1.375c0.492-1.276,0.688-2.062,2.357-2.356
	s-10.408-21.407-10.408-21.407c3.143-0.393-0.885-6.481-0.885-6.481c-1.08-3.24,4.518,3.928,5.598,4.616s1.57,1.767,0.785,1.669
	s-1.67,0.982-0.982,1.081c0.688,0.099,7.07,7.463,8.74,12.471s4.615,6.972,7.66,9.917c3.043,2.946,2.65,14.828,2.65,14.828
	c-0.195,4.321,2.75,9.525,2.75,9.525c0.982,1.865-1.08,10.802-1.08,10.802c-0.982,1.08-0.295,1.473-0.295,1.473
	c0.492,0.59,3.83,7.07,3.83,7.07c-0.885-0.098,0.883,1.67,0.883,1.67c2.553,2.945-0.588,1.473-0.588,1.473
	c-2.947-0.786,0.49,4.026,0.49,4.026c0.59,0.884-3.83-1.375-3.83-1.375c-4.516-0.295,1.18,3.24,1.18,3.24
	c4.223,3.535-1.375,1.375-1.375,1.375c-2.26-0.884-0.688,2.455-0.688,2.455c1.57,0.785,10.016,4.223,10.016,4.223
	c0.197,1.866-1.275,4.321-1.275,4.321c0.195,1.964-0.885,3.633-0.885,3.633c-0.59,4.026-0.883,4.419-0.883,4.419
	c-2.062,0.099-5.695,6.874-5.695,6.874c-0.885,1.277-5.893,7.168-5.893,7.168c-0.982,3.438-9.82-0.098-9.82-0.098
	c-3.24,1.669-2.258,0-2.258,0c-0.197-1.08,2.16-4.027,2.16-4.027c3.438-1.275,2.16-6.578,2.16-6.578
	c1.965-0.688-3.535-2.062-3.436-2.651c0.098-0.589,2.945-1.276,2.945-1.276c3.928-0.982,1.768-2.161,1.768-2.161
	c-0.295-1.964,1.178-4.714,1.178-4.714c5.695-0.393,0-8.347,0-8.347c-5.303-3.731-5.793-6.58-5.793-6.58
	c6.186-4.025,2.16-10.114,2.258-11.882s0.688-12.373,0.688-12.373c-0.982-3.044-2.455-9.722-2.455-9.722
	c1.08-2.553,4.713-8.739,4.713-8.739c1.375-2.062,5.697-4.419,4.617-5.892c-1.082-1.474-4.91-0.59-4.91-0.59
	c-3.83-0.688-3.535,1.866-3.535,1.866c-0.785,0.491-1.178,2.945-1.178,2.945c-0.355,3.896-4.715,6.973-4.715,6.973
	c-5.498,3.044-0.98,5.008-0.98,5.008c2.945,3.24-1.867,3.339-1.867,3.339c-5.4-0.884-1.373,4.124-1.373,4.124
	c5.301,6.285,3.828,7.659,3.828,7.659c-5.008,0.491,1.18,5.009,1.18,5.009s-0.393-0.982-0.295-0.099s1.57,2.946,1.963,3.928
	c0.393,0.982-1.57,1.08-1.57,1.08c0.295,4.714-7.268,2.651-7.268,2.651s0,0-0.785,0.099s-6.285-0.295-9.133-1.375
	s-6.186-1.08-6.186-1.08s-1.965,0.884-5.695,0.785c-3.732-0.098-7.66,1.277-7.66,1.277c-2.161-0.197,2.062-2.357,2.16-2.259
	c0.098,0.098,2.848-2.651-1.08-2.357c-10.702,0.804-16.006-4.223-16.006-4.223c-0.981-0.687-2.259-2.062-2.259-2.062
	c-4.909-0.982,0.688,6.088,0.688,6.088c0.59,0.688-0.099,1.179-0.099,1.179c-0.393-0.786-4.223-3.437-4.223-3.437
	C106.513,103.869,105.843,103.214,104.699,101.993z"/>
<path id="path466" fill="#4C0000" d="M92.966,96.295c0,0,5.696,2.749,6.973,4.124s8.15,6.973,8.15,6.973s-2.651-0.982-3.928-1.866
	c-1.277-0.884-6.579-4.909-6.579-4.909S95.716,97.669,92.966,96.295z"/>
<path id="path470" fill="#99CC32" d="M64.485,80.978c0.165-0.073-0.092-1.404-0.191-1.671c-0.502-1.339-4.91-2.062-4.91-2.062
	c-0.111,0.67-0.139,1.454-0.087,2.259C59.296,79.502,61.687,82.212,64.485,80.978z"/>
<path id="path474" fill="#659900" d="M64.485,80.879c-0.221,0.078-0.007-1.342-0.094-1.572c-0.502-1.339-5.008-2.111-5.008-2.111
	c-0.111,0.67-0.139,1.454-0.087,2.258C59.296,79.453,61.392,81.967,64.485,80.879z"/>
<path id="path478" d="M62.329,80.949c-0.307,0-0.555-0.56-0.555-1.25c0-0.689,0.248-1.25,0.555-1.25c0.308,0,0.556,0.561,0.556,1.25
	C62.884,80.39,62.636,80.949,62.329,80.949z"/>
<path id="path486" d="M39.94,129.094c0,0-2.75,4.909,9.427,1.964c0,0,6.874-0.59,8.053-1.768c0.589,0.393,4.696,1.833,6.088,2.16
	c3.339,0.786,7.463-4.124,7.463-4.124s2.259-5.155,3.634-5.155s-0.196,0.785-0.196,0.785s-3.241,4.959-3.045,5.745
	c0,0-2.553,9.819-10.409,10.213c0,0-7.929,0.466-7.266,3.339c0,0,4.32-1.179,5.499,0c0,0,5.303-0.197,1.374,2.946l-3.338,5.695
	c0,0,0.068,1.923-4.91,0.196c-4.812-1.67-9.869-8.004-9.869-8.004S34.613,135.943,39.94,129.094z"/>
<path id="path490" fill="#E59999" d="M39.35,131.058c0,0-0.981,4.713,17.087-0.394c0,0,2.16,0,3.339,0.394
	c1.178,0.393,7.07,1.768,8.053,1.178c0,0-3.535,6.678-9.231,5.893c0,0-6.48,0.785-6.284,3.143c0,0,1.964,3.535,4.32,4.713
	c0,0,1.375,1.179,1.179,2.75s-1.571,2.357-2.553,2.75c-0.982,0.393-2.554-1.179-3.339-1.179c-0.786,0-4.91-3.143-7.07-5.498
	c-2.16-2.357-6.284-8.249-6.088-9.624C38.958,133.807,39.35,131.058,39.35,131.058z"/>
<path id="path494" fill="#B26565" d="M40.921,139.625c1.277,1.939,2.848,4.002,3.928,5.18c2.161,2.357,6.285,5.499,7.07,5.499
	c0.786,0,2.357,1.571,3.339,1.179c0.982-0.394,2.356-1.179,2.553-2.75c0.197-1.571-1.178-2.75-1.178-2.75
	c-1.506-0.753-2.851-2.467-3.626-3.607c0,0,0.091,1.251-2.463,0.858c-2.553-0.394-5.105-1.768-5.892-3.339
	c-0.785-1.571-1.964-2.75-1.179-0.982c0.786,1.768,1.965,3.535,2.75,3.731s0.589,0.786-0.589,0.59
	c-1.179-0.197-2.554-0.394-4.714-2.946V139.625L40.921,139.625z"/>
<path id="path498" fill="#992600" d="M39.645,129.29c0,0,0.884-6.679,1.473-8.643c0,0-0.393-3.339,0.786-5.4
	c1.178-2.062,2.16-5.106,3.633-7.758c1.474-2.651,1.571-4.615,3.535-5.4c1.964-0.786,4.91-5.009,6.285-5.499
	c1.374-0.491,1.276-0.099,1.276-0.099s3.339-7.267,10.017-5.303c0,0-7.955-1.375-0.197-5.99c0,0-2.356,0.54-0.736-2.896
	c1.081-2.292,0.835,1.031-4.565,6.824c0,0-2.455,4.223-5.009,5.695c-2.553,1.474-8.444,4.91-9.034,6.776
	c-0.589,1.865-2.16,4.713-3.142,5.499c-0.982,0.785-2.357,2.848-2.554,4.517c0,0-0.589,1.964-1.276,2.554
	c-0.688,0.589-0.786,2.16-0.786,3.142c0,0.982-0.981,2.357-0.883,3.536c0,0,0.393,9.329,0.196,10.311L39.645,129.29z"/>
<path id="path502" fill="#FFFFFF" d="M35.422,131.549c0,0-0.981-0.688-3.142,2.258c0,0,3.584,16.203,3.584,16.891
	c0,0,0.54-1.031-0.099-4.566s-1.08-9.771-1.08-9.771L35.422,131.549z"/>
<path id="path506" fill="#992600" d="M46.028,101.794c0,0-8.642,1.571-8.444,15.908l-0.394,12.177c0,0-0.589-12.569-1.179-13.354
	c-0.589-0.786,1.375-6.285-0.196-3.339c0,0-6.874,6.874-2.945,17.283c0,0,0.736,1.62-0.736-0.639c0,0-2.259-6.187-1.719-9.329
	c0,0,0.098-1.08,1.031-2.455c0,0,4.223-5.745,5.548-6.874c0,0,0.884-7.07,8.445-9.623C45.439,101.549,48.238,100.419,46.028,101.794
	z"/>
<path id="path510" d="M114.472,69.29c0.323-0.174,0.319-0.65,0.604-0.735c0.563-0.169,0.645-0.692,0.898-1.077
	c0.429-0.647,0.523-1.4,0.81-2.133c0.134-0.344,0.146-0.812-0.007-1.137c-0.576-1.218-0.922-2.42-1.629-3.611
	c-0.132-0.221-0.261-0.611-0.359-0.904c-0.227-0.679-0.844-1.166-1.267-1.814c-0.142-0.217,0.117-0.671-0.235-0.712
	c-0.44-0.052-1.152-0.336-1.267,0.167c-0.288,1.27,0.208,2.509,0.684,3.708c-0.385,0.34-0.221,0.792-0.146,1.168
	c0.349,1.771-0.239,3.417-0.613,5.122c-0.011,0.052,0.157,0.148,0.144,0.179c-0.601,1.319-1.313,2.52-2.207,3.688
	c-0.372,0.487-0.8,0.938-1.044,1.459c-0.181,0.387-0.381,0.86-0.259,1.346c-1.687,1.365-2.791,3.253-4.072,5.142
	c-0.228,0.334-0.085,0.928,0.187,1.06c0.398,0.195,0.868-0.308,1.1-0.723c0.19-0.343,0.364-0.662,0.605-0.978
	c0.064-0.086-0.023-0.292,0.043-0.352c1.292-1.152,2.112-2.594,3.316-3.756c0.957-0.162,1.713-0.651,2.57-1.149
	c0.151-0.088,0.409,0.035,0.551-0.062c0.86-0.577,0.859-1.577,0.912-2.515C113.816,70.236,113.913,69.59,114.472,69.29z"/>
<path id="path514" d="M110.131,67.098c0.062-0.038-0.016-0.246,0.038-0.352c0.08-0.159,0.277-0.252,0.357-0.41
	c0.054-0.106-0.026-0.293,0.041-0.362c1.145-1.202,1.271-2.687,0.762-4.146c0.504-0.305,0.533-0.924,0.324-1.34
	c-0.419-0.834-0.514-1.78-0.991-2.538c-0.395-0.623-1.169-1.233-1.842-0.594c-0.207,0.196-0.365,0.583-0.229,0.932
	c0.032,0.081,0.172,0.152,0.158,0.192c-0.052,0.159-0.32,0.269-0.323,0.403c-0.015,0.734-0.483,1.477-0.174,2.129
	c0.379,0.8,0.781,1.711,1.113,2.583c-0.605,1.039-0.099,2.241-0.96,3.163c-0.066,0.072-0.062,0.261-0.002,0.36
	c0.144,0.239,0.342,0.438,0.581,0.582c0.1,0.059,0.271,0.06,0.368-0.001C109.637,67.521,109.833,67.282,110.131,67.098z"/>
<path id="path518" d="M140.973,62.035c0.68,0.88,0.824,2.252-0.184,2.935c0.271,1.624,1.916,0.652,2.947,0.393
	c-0.053-0.19,0.057-0.359,0.197-0.362c0.518-0.007,0.852-0.514,1.373-0.423c0.213-0.765,1.018-1.109,1.334-1.787
	c0.848-1.814,0.557-3.912-0.711-5.506c-0.1-0.125,0.006-0.378-0.055-0.556c-0.371-1.085-1.387-1.24-2.336-1.578
	c-0.578-1.902-0.902-3.881-1.766-5.695c-0.793-0.123-1.137-0.977-1.793-1.33c-0.654-0.353-0.932,0.422-0.912,0.936
	c0.004,0.101,0.225,0.21,0.143,0.39c-0.039,0.081-0.166,0.135-0.166,0.201c0,0.066,0.109,0.131,0.174,0.197
	c-0.449,0.402-1.148,0.637-1.293,1.199c-0.469,1.822,0.795,3.356,1.613,4.928c0.291,0.557-0.07,1.182-0.443,1.774
	c-0.215,0.341-0.162,0.895-0.027,1.315C139.438,60.208,140.217,61.062,140.973,62.035z"/>
<path id="path522" d="M122.726,71.062c-0.729,0.908-2.405,2.17-0.973,3.116c0.095,0.063,0.276,0.065,0.361,0
	c0.993-0.769,1.976-1.212,3.172-1.498c0.062-0.014,0.195,0.215,0.377,0.136c0.792-0.345,1.778-0.316,2.359-0.974
	c1.85,0.11,3.6-0.438,5.266-1.08c0.57-0.22,1.193-0.494,1.783-0.74c0.676-0.283,1.266-0.738,1.812-1.299
	c0.064-0.067,0.238-0.023,0.371-0.023c-0.02-0.423,0.451-0.485,0.572-0.791c0.045-0.114-0.027-0.309,0.037-0.358
	c1.051-0.801,1.502-1.791,0.928-2.958c-0.141-0.284-0.262-0.588-0.539-0.821c-0.533-0.447-1.074-0.028-1.588-0.177
	c-0.078,0.308-0.436,0.224-0.625,0.321c-0.422,0.215-1.076-0.072-1.498,0.143c-0.67,0.342-1.279,0.425-1.977,0.609
	c-0.154,0.041-0.535-0.007-0.615,0.302c-0.064-0.066-0.137-0.181-0.189-0.17c-0.938,0.194-1.557,0.299-2.195,1.13
	c-0.051,0.065-0.268-0.022-0.346,0.044c-0.469,0.396-0.667,1.002-1.208,1.332c-0.099,0.061-0.271-0.021-0.367,0.041
	c-0.317,0.212-0.497,0.526-0.812,0.746c-0.161,0.112-0.358-0.047-0.342-0.173c0.12-0.956,0.441-1.833,0.158-2.755
	c1.02-1.237,2.256-2.194,3.142-3.535c0.008-1.063,0.348-2.117,0.293-3.137c-0.006-0.095-0.146-0.455-0.209-0.625
	c-0.152-0.419,0.293-0.943-0.123-1.298c-0.689-0.591-1.323-0.161-1.728,0.543c-0.902,0.191-1.916,0.532-2.691-0.074
	c-0.494-0.387-0.778-0.831-1.171-1.35c-0.483-0.64-0.318-1.344-0.284-2.113c0.003-0.062-0.152-0.129-0.152-0.195
	c0.001-0.066,0.109-0.13,0.175-0.196c-0.347-0.307-0.481-0.827-0.982-0.982c0.15-0.537-0.182-0.97-0.609-1.119
	c-0.979-0.339-1.803,0.6-2.731,0.635c-0.252,0.01-0.481-0.5-0.8-0.66c-0.213-0.106-0.558-0.122-0.736,0.008
	c-0.338,0.248-0.627,0.303-0.999,0.404c-0.793,0.214-1.421,0.751-2.148,1.171c-0.729,0.42-1.198,1.126-1.729,1.774
	c-0.462,0.565-0.528,1.75,0.169,1.996c0.904,0.319,1.545-1.008,2.51-0.848c0.153,0.025,0.255,0.178,0.2,0.368
	c0.191,0.054,0.298-0.059,0.393-0.196c0.422,0.5,0.993,0.666,1.454,1.094c0.477,0.444,1.334,0.239,1.832,0.729
	c0.75,0.737,0.477,2.054,1.429,2.694c-0.288,0.645-0.586,1.272-0.751,1.972c-0.138,0.592,0.351,1.18,0.945,1.136
	c0.617-0.047,0.746-0.419,0.984-0.947c0.131,0.131,0.361,0.276,0.341,0.383c-0.225,1.172-0.729,2.15-0.953,3.344
	c-0.029,0.155-0.18,0.255-0.37,0.201c-0.229,2.037-2.219,3.212-3.469,4.767c-0.198,0.246-0.2,0.859,0.001,1.057
	c0.688,0.682,1.651-0.078,2.485-0.324c0.104-0.593,0.526-1.055,1.181-1.027c0.125,0.005,0.24-0.262,0.399-0.325
	c0.171-0.068,0.418,0.042,0.559-0.056c0.849-0.586,1.54-1.13,2.393-1.713c0.095-0.064,0.264,0.014,0.369-0.039
	c0.16-0.08,0.252-0.27,0.41-0.36c0.171-0.099,0.29,0.044,0.385,0.182c-0.317,0.171-0.318,0.641-0.604,0.74
	c-0.38,0.132-0.656,0.384-0.987,0.603c-0.144,0.095-0.467-0.026-0.518,0.062C123.657,70.413,123.075,70.629,122.726,71.062z"/>
<path id="path526" d="M95.52,46.803c0,0-4.536-1.41-10.017,11.195c0,0-1.179,2.553-2.356,3.535c-1.179,0.982-6.678,2.75-7.659,4.714
	l-5.106,7.855c0,0,7.267-7.855,8.838-9.034c0,0,3.928-4.124,2.356-0.785c0,0-6.874,5.303-6.285,9.819c0,0-2.749,7.07-3.142,8.053
	c0,0,7.855-15.712,9.034-16.301c1.178-0.59,1.768-0.59,1.178,1.178c-0.589,1.769-0.785,9.82-2.16,10.802
	c0,0,3.928-10.017,3.535-11.587c0,0,1.571-1.768,2.749,0.785l-0.589,7.856l2.16,5.892c0,0-1.178-5.499-0.393-13.158
	c0,0-0.982-5.106,0.981-2.356c1.964,2.749,6.678,5.695,6.678,8.052c0,0-2.553-8.642-7.07-10.998l-1.964,2.946L85.7,64.282
	c0,0-1.768-0.393,0.393-3.731c2.16-3.338,1.964-3.731,1.964-3.731s3.143,3.535,3.929,3.535c0,0,6.48-3.731,7.069,8.249
	c0,0,3.339-7.07-1.178-10.409c0,0-7.267-0.982-6.678-3.535l3.535-6.088c1.768-2.553,0.982-1.178,0.982-1.178L95.52,46.803z"/>
<path id="path530" d="M85.7,54.855c0,0-6.284,0-7.855,2.553l-3.535,4.713c0,0,8.445-4.909,10.409-5.499S85.7,54.855,85.7,54.855z"/>
<path id="path534" d="M66.06,57.997c0,0-0.981,0.589-1.178,1.964c-0.196,1.375-1.375,1.571-0.982,2.946
	c0.394,1.375,1.375,2.554,1.375,0.589c0-1.964,0.785-2.945,1.179-3.535C66.846,59.372,67.631,57.212,66.06,57.997z"/>
<path id="path538" d="M61.74,88.046c0,0-4.124-1.964-5.695-3.731s-1.349,0.77-3.731,0.59c-2.871-0.217-2.356-8.053-2.356-8.053
	l-1.964,3.731c0,0-0.59,7.07,3.338,5.892c1.918-0.575,2.554,0.196,1.768,0.589c-0.785,0.394,2.75,0.59,1.375,1.375
	c-1.375,0.786,5.695-1.768,4.517,3.339L61.74,88.046z"/>
<path id="path542" d="M55.553,95.116c0,0-7.561,2.16-9.328-2.553c0,0-2.357,1.178-1.277,2.651c1.081,1.473,1.67,1.669,1.67,1.669
	s2.65,0.589,2.356,0.982c-0.295,0.393-1.473,2.062-1.473,2.062S52.509,96.982,55.553,95.116z"/>
<path id="path546" fill="#FFFFFF" d="M167.695,133.513c-0.209,1.048-1.029,1.44-1.963,1.767c-0.941-0.47-2.217-1.995-3.143-0.981
	c-0.232-0.236-0.615-0.266-0.783-0.59c-0.229-0.441-0.096-0.955-0.264-1.347c-0.268-0.624-0.615-1.295-0.523-1.991
	c0.885-0.35,1.178-1.285,0.945-2.151c-0.033-0.126-0.244-0.223-0.146-0.394c0.092-0.159,0.248-0.271,0.379-0.401
	c-0.066,0.066-0.137,0.181-0.191,0.171c-0.301-0.053-0.238-0.365-0.176-0.555c0.287-0.857,1.277-0.987,1.938-0.401
	c0.127-0.277,0.377-0.183,0.59-0.196c-0.025-0.284,0.176-0.543,0.273-0.749c0.254-0.539,1.053,0.004,1.445-0.296
	c0.527-0.405,1.049-0.749,1.58-0.453c0.887,0.497,1.727,1.093,2.314,1.947c0.283,0.41,0.4,1.038,0.373,1.509
	c-0.02,0.318-0.697,0.146-0.865,0.602c-0.316,0.858,0.582,1.113,0.953,1.77c0.098,0.171-0.033,0.32-0.188,0.368
	c-0.201,0.063-0.586-0.029-0.518,0.192C170.203,132.899,168.85,133.232,167.695,133.513z"/>
<path id="path550" fill="#FFFFFF" d="M162.982,143.136c-0.004-0.854-0.789-1.716-0.195-2.554c0.066,0.066,0.131,0.175,0.195,0.175
	c0.066,0,0.131-0.108,0.197-0.175c0.734,1.088,2.527,1.544,2.457,2.941c-0.012,0.22-0.545,0.67-0.1,0.986
	c-0.891,0.662-0.918,1.826-1.375,2.75c-0.607-0.141-1.203-0.318-1.768-0.589c0.172-0.729,0.115-1.557,0.518-2.205
	C163.125,144.124,162.984,143.594,162.982,143.136z"/>
<path id="path554" fill="#CCCCCC" d="M81.379,138.717c0,0-8.277,4.977-1.375-2.553c4.321-4.714,9.23-7.464,9.23-7.464
	s5.106-2.161,6.874-2.75s9.23-3.143,10.803-3.339c1.57-0.196,6.284-2.16,9.623-0.196s7.267,4.124,7.267,4.124
	s-8.053-4.124-9.82-2.945c-1.768,1.178-5.303,0.981-8.249,2.553c0,0-7.267,2.161-8.837,3.144c-1.571,0.981-6.678,6.678-7.463,6.284
	c-0.786-0.393,0.196-0.589,0.785-1.964c0.589-1.374-0.393-2.16-4.32,0.982S81.379,138.717,81.379,138.717z"/>
<path id="path558" d="M85.015,135.787c0,0,0.692-6.402,4.855-5.585c0,0,4.038-2.047,5.375-3.014c0,0,3.996-0.836,4.64-1.139
	c9.073-4.271,16.3-2.053,16.568-2.603s9.903,2.944,11.676,4.951c0.191,0.218-5.023-2.748-9.785-3.677
	c-4.062-0.793-14.668,0.122-20.023,2.84c-1.459,0.74-5.852,3.58-7.095,3.526C89.984,131.032,85.015,135.787,85.015,135.787z"/>
<path id="path562" fill="#CCCCCC" d="M83.147,148.34c0,0-7.463-1.178,0.786-1.964c0,0,8.838-0.981,10.802-3.535
	c0,0,6.677-4.518,8.052-4.714s16.104-3.731,16.301-4.909s2.946-1.178,3.731-0.785c0.786,0.393,0.394,0.981-0.981,1.374
	s-16.694,8.445-19.836,9.034c-3.143,0.59-8.838,4.321-11.195,4.91C88.45,148.34,83.147,148.34,83.147,148.34z"/>
<path id="path566" d="M92.731,144.708c0,0-4.214-0.407,0.01-0.81c0,0,4.328-1.681,5.334-2.988c0,0,3.419-2.312,4.123-2.413
	s7.558-1.911,7.659-2.514c0.101-0.604,16.826-6.781,18.996-5.215c1.43,1.031-3.432,0.208-8.162,2.374
	c-0.666,0.304-17.287,7.466-18.896,7.768c-1.608,0.303-4.524,2.212-5.73,2.514C94.857,143.726,92.731,144.708,92.731,144.708z"/>
<path id="path570" d="M88.842,145.787c0,0,2.554-0.196,1.964,0.589c-0.589,0.786-1.768,0.393-1.768,0.393L88.842,145.787z"/>
<path id="path574" d="M85.307,146.572c0,0,2.554-0.196,1.965,0.59c-0.59,0.785-1.768,0.393-1.768,0.393L85.307,146.572z"/>
<path id="path578" d="M80.202,147.358c0,0,2.553-0.196,1.964,0.589c-0.589,0.786-1.768,0.393-1.768,0.393L80.202,147.358z"/>
<path id="path582" d="M76.469,147.751c0,0,2.554-0.196,1.965,0.589c-0.589,0.786-1.768,0.394-1.768,0.394L76.469,147.751z"/>
<path id="path586" d="M95.324,128.308c0,0,2.16,0,1.57,0.786c-0.589,0.785-2.16,0.588-2.16,0.588L95.324,128.308z"/>
<path id="path590" d="M90.414,131.058c0,0,3.194-1.052,1.964,0.589c-0.589,0.786-1.768,0.393-1.768,0.393L90.414,131.058z"/>
<path id="path594" d="M84.915,133.414c0,0,2.553-0.195,1.964,0.589c-0.589,0.786-1.767,0.394-1.767,0.394L84.915,133.414z"/>
<path id="path598" d="M81.183,136.36c0,0,2.553-0.196,1.964,0.589s-1.768,0.393-1.768,0.393L81.183,136.36z"/>
<path id="path602" d="M77.844,138.717c0,0,2.554-0.196,1.964,0.589c-0.589,0.786-1.767,0.394-1.767,0.394L77.844,138.717z"/>
<path id="path606" d="M97.034,141.857c0,0,3.398-0.261,2.613,0.784c-0.784,1.046-2.353,0.523-2.353,0.523L97.034,141.857z"/>
<path id="path610" d="M102.139,139.501c0,0,3.398-0.262,2.614,0.784s-2.353,0.522-2.353,0.522L102.139,139.501z"/>
<path id="path614" d="M107.442,137.341c0,0,3.398-0.261,2.614,0.784c-0.784,1.046-2.354,0.522-2.354,0.522L107.442,137.341z"/>
<path id="path618" d="M112.548,134.984c0,0,3.398-0.262,2.613,0.783c-0.783,1.046-2.353,0.523-2.353,0.523L112.548,134.984z"/>
<path id="path622" d="M98.998,126.146c0,0,3.397-0.26,2.614,0.785c-0.785,1.045-2.746,0.915-2.746,0.915L98.998,126.146z"/>
<path id="path626" d="M103.907,124.575c0,0,3.398-0.262,2.614,0.783c-0.784,1.046-2.942,0.916-2.942,0.916L103.907,124.575z"/>
<path id="path630" d="M92.771,144.216c0,0,2.553-0.196,1.964,0.589c-0.59,0.785-1.768,0.394-1.768,0.394L92.771,144.216z"/>
<path id="path634" fill="#992600" d="M56.83,95.509c0,0-2.16,4.321-2.356,5.893c0,0,0.393-4.321,0.981-5.303
	C56.044,95.116,56.83,95.509,56.83,95.509z"/>
<path id="path638" fill="#992600" d="M47.795,102.383c0,0-1.571,7.07-1.375,8.445c0,0-0.589-5.695-0.393-6.285
	C46.224,103.954,47.795,102.383,47.795,102.383z"/>
<path id="path642" fill="#CCCCCC" d="M58.008,65.755l-0.098,1.571l-1.081,0.099c0,0,6.973,6.187,7.268,9.918
	C64.097,77.343,64.49,73.316,58.008,65.755z"/>
<path id="path646" d="M59.964,66.376c-0.212-0.204-0.104-0.57-0.305-0.697c-0.396-0.254,0.638-0.282,0.525-0.633
	c-0.188-0.593-0.096-0.603-0.156-1.229c-0.028-0.293,0.261-1.05,0.45-1.266c0.71-0.812,0.06-2.25,0.865-3.012
	c0.149-0.142,0.334-0.413,0.474-0.619c0.323-0.473,0.905-0.712,1.371-1.119c0.156-0.135,0.058-0.542,0.337-0.497
	c0.351,0.057,0.96-0.007,0.938,0.406c-0.056,1.041-0.708,1.885-1.336,2.704c0.222,0.346-0.004,0.658-0.143,0.931
	c-0.656,1.286-0.563,2.682-0.648,4.076c-0.003,0.041-0.153,0.08-0.149,0.105c0.173,1.146,0.46,2.227,0.892,3.32
	c0.18,0.457,0.411,0.896,0.484,1.352c0.055,0.337,0.105,0.746-0.095,1.092c0.999,1.419,0.356,2.721,0.931,4.454
	c0.101,0.308,0.932,1.247,0.704,1.168c-1.233-0.428-1.289-0.623-1.375-0.992c-0.072-0.307-0.234-0.982-0.351-1.278
	c-0.031-0.08-0.115-1.005-0.153-1.065c-0.743-1.169-0.076-1.083-0.749-2.241c-0.701-0.334-1.176-0.876-1.727-1.446
	c-0.098-0.1,0.464-0.455,0.375-0.561c-0.536-0.633-1.103-1.009-0.938-1.742C60.262,67.248,60.33,66.729,59.964,66.376z"/>
<path id="path650" d="M58.205,67.228c0,0,0.196,3.339,1.375,4.125c1.179,0.785,0.589,0.393-0.982-0.196
	c-1.57-0.59-0.981-0.982-0.981-0.982s-1.375,0.196-0.196,1.179c1.178,0.981,2.946,2.16,2.16,2.16c-0.785,0-4.517-1.964-4.517-3.339
	c0-1.374-0.491-3.388-0.491-3.388s0.54-0.393,2.896-0.344C57.468,66.442,58.156,66.786,58.205,67.228z"/>
<path id="path654" fill="#FFFFFF" stroke="#000000" stroke-width="0.0278" d="M57.812,76.36c0,0-4.184-1.37-13.257,0.295
	c0,0,4.435-1.021,13.649,0.098C63.262,77.367,57.812,76.36,57.812,76.36z"/>
<path id="path658" fill="#FFFFFF" stroke="#000000" stroke-width="0.0278" d="M58.842,76.325c0,0-4.049-1.727-13.233-0.853
	c0,0,4.507-0.633,13.591,1.278C64.185,77.8,58.842,76.325,58.842,76.325z"/>
<path id="path662" fill="#FFFFFF" stroke="#000000" stroke-width="0.0278" d="M59.719,76.371c0,0-3.909-2.023-13.132-1.834
	c0,0,4.54-0.297,13.457,2.285C64.938,78.238,59.719,76.371,59.719,76.371z"/>
<path id="path666" fill="#FFFFFF" stroke="#000000" stroke-width="0.0278" d="M60.343,76.48c0,0-3.351-2.114-11.636-2.653
	c0,0,4.095,0.083,11.893,3.083C64.879,78.556,60.343,76.48,60.343,76.48z"/>
<path id="path670" fill="#FFFFFF" stroke="#000000" stroke-width="0.0278" d="M116.947,81.645c0,0-0.456,0.315-0.352-0.264
	c0.105-0.58,13.956-7.047,15.729-6.924C132.324,74.457,117.473,80.941,116.947,81.645z"/>
<path id="path674" fill="#FFFFFF" stroke="#000000" stroke-width="0.0278" d="M115.281,81.958c0,0-0.431,0.351-0.371-0.235
	c0.06-0.587,13.359-8.121,15.137-8.138C130.047,73.585,115.75,81.216,115.281,81.958z"/>
<path id="path678" fill="#FFFFFF" stroke="#000000" stroke-width="0.0278" d="M113.667,82.633c0,0-0.407,0.379-0.387-0.21
	c0.021-0.589,9.751-8.197,14.568-9.118C127.849,73.305,118.997,77.295,113.667,82.633z"/>
<path id="path682" fill="#FFFFFF" stroke="#000000" stroke-width="0.0278" d="M112.255,83.548c0,0-0.365,0.341-0.348-0.189
	c0.019-0.53,8.775-7.378,13.111-8.206C125.019,75.152,117.052,78.744,112.255,83.548z"/>
<path id="path686" fill="#CCCCCC" d="M96.699,156.196c0,0-7.464-1.179,0.785-1.965c0,0,8.838-0.981,10.802-3.534
	c0,0,6.678-4.518,8.053-4.714c1.374-0.196,9.426-1.964,9.623-3.143c0.196-1.179,3.142-2.356,3.927-1.964s0.785,4.909-0.59,5.302
	c-1.374,0.394-10.605,3.929-13.747,4.518c-3.143,0.589-8.838,4.32-11.195,4.91C102.001,156.196,96.699,156.196,96.699,156.196z"/>
<path id="path690" d="M132.541,137.833c0,0-1.473,0.785-2.062,2.062c0,0-3.142,5.204-10.115,6.775c0,0-11.292,4.419-15.122,5.401
	c0,0-6.579,2.454-10.213,2.062c0,0-3.437,0.099-0.393,0.884c0,0,9.918-0.981,11.587-1.865c0,0,7.66-2.554,9.133-3.83
	s10.409-3.731,11.488-4.713C127.925,143.627,132.736,139.503,132.541,137.833z"/>
<path id="path694" d="M103.71,153.305c0,0,2.567-0.111,2.001,0.649c-0.565,0.761-1.768,0.332-1.768,0.332L103.71,153.305z"/>
<path id="path698" d="M100.174,153.968c0,0,2.566-0.11,2.001,0.65c-0.566,0.761-1.768,0.332-1.768,0.332L100.174,153.968z"/>
<path id="path702" d="M95.054,154.581c0,0,2.566-0.111,2.001,0.649s-1.768,0.332-1.768,0.332L95.054,154.581z"/>
<path id="path706" d="M91.306,154.848c0,0,2.567-0.11,2.001,0.65s-1.769,0.331-1.769,0.331L91.306,154.848z"/>
<path id="path710" d="M111.829,149.672c0,0,3.417-0.147,2.663,0.864c-0.753,1.013-2.354,0.441-2.354,0.441L111.829,149.672z"/>
<path id="path714" d="M116.893,147.499c0,0,2.926-1.62,2.663,0.865c-0.132,1.255-2.353,0.441-2.353,0.441L116.893,147.499z"/>
<path id="path718" d="M121.376,146.117c0,0,3.516-1.816,2.664,0.864c-0.382,1.203-2.354,0.442-2.354,0.442L121.376,146.117z"/>
<path id="path722" d="M126.048,143.748c0,0,2.14-2.405,2.663,0.865c0.199,1.246-2.354,0.442-2.354,0.442L126.048,143.748z"/>
<path id="path726" d="M107.615,151.874c0,0,2.566-0.112,2.001,0.649c-0.565,0.76-1.768,0.331-1.768,0.331L107.615,151.874z"/>
<path id="path730" fill="#FFFFFF" stroke="#000000" stroke-width="0.0278" d="M125.094,92.27c0,0-0.356,0.327-0.356-0.199
	c0-0.525,8.584-7.038,12.926-7.717C137.664,84.354,129.76,87.657,125.094,92.27z"/>
<path id="path734" d="M126.55,123.594c0,0,10.803,10.999,15.319,12.767c0,0,4.518,5.498,2.555,18.265c0,0-1.57,3.731-3.143-6.481
	c0,0,1.57-12.373-3.928-4.517c0,0-4.125-4.861-0.982-4.714c0,0,1.57,0.982,1.768,0.196c0.197-0.785-3.732-7.463-12.177-14.533
	C117.516,117.505,126.55,123.594,126.55,123.594z"/>
<path id="path738" fill="#FFFFFF" stroke="#000000" stroke-width="0.0278" d="M97.876,142.645c0,0-0.098-0.884,0.786-0.49
	c0.884,0.393,47.136,3.436,62.65,15.22C161.312,157.375,139.121,145.983,97.876,142.645z"/>
<path id="path742" fill="#FFFFFF" stroke="#000000" stroke-width="0.0278" d="M102.983,140.484c0,0-0.099-0.885,0.786-0.491
	c0.884,0.393,67.954-0.099,79.542,15.81C183.311,155.804,172.508,143.431,102.983,140.484z"/>
<path id="path746" fill="#FFFFFF" stroke="#000000" stroke-width="0.0278" d="M108.678,138.521c0,0-0.098-0.884,0.785-0.491
	c0.885,0.393,86.023-5.99,97.611,9.918C207.074,147.947,202.359,135.378,108.678,138.521z"/>
<path id="path750" fill="#FFFFFF" stroke="#000000" stroke-width="0.0278" d="M113.588,136.164c0,0-0.098-0.884,0.785-0.492
	c0.885,0.394,60.884-18.56,72.472-2.65C186.846,133.021,180.266,120.942,113.588,136.164z"/>
<path id="path754" fill="#FFFFFF" stroke="#000000" stroke-width="0.0278" d="M85.111,147.358c0,0-0.098-0.884,0.786-0.491
	s9.623,1.473,10.605,20.523C96.502,167.391,92.966,146.769,85.111,147.358z"/>
<path id="path758" fill="#FFFFFF" stroke="#000000" stroke-width="0.0278" d="M80.791,148.144c0,0-0.099-0.884,0.785-0.491
	s7.855-1.866,6.481,17.185C88.057,164.837,88.646,147.555,80.791,148.144z"/>
<path id="path762" fill="#FFFFFF" stroke="#000000" stroke-width="0.0278" d="M76.862,148.34c0,0-0.098-0.884,0.786-0.491
	s8.445,0.688,2.356,11.686C80.004,159.535,84.718,147.751,76.862,148.34z"/>
<path id="path766" fill="#FFFFFF" stroke="#000000" stroke-width="0.0278" d="M100.099,126.571c0,0-0.218,0.981,0.542,0.385
	c7.89-6.199,23.818-35.12,51.16-37.886C151.801,89.07,132.992,83.124,100.099,126.571z"/>
<path id="path770" fill="#FFFFFF" stroke="#000000" stroke-width="0.0278" d="M105.598,125.688c0,0-0.669-0.585,0.248-0.893
	c0.917-0.307,56.125-35.904,75.414-31.993C181.26,92.802,167.951,89.114,105.598,125.688z"/>
<path id="path774" fill="#FFFFFF" stroke="#000000" stroke-width="0.0278" d="M95.365,128.684c0,0-0.249,0.785,0.591,0.307
	c4.407-2.514,6.182-30.604,27.577-31.221C123.533,97.77,107.62,90.545,95.365,128.684z"/>
<path id="path778" fill="#FFFFFF" stroke="#000000" stroke-width="0.0278" d="M85.583,134.098c0,0-0.529,0.632,0.43,0.507
	c5.031-0.654,15.541-20.918,37.36-18.425C123.374,116.181,107.678,109.137,85.583,134.098z"/>
<path id="path782" fill="#FFFFFF" stroke="#000000" stroke-width="0.0278" d="M91.101,131.09c0,0-0.398,0.722,0.52,0.414
	c4.812-1.607,11.235-23.512,33.128-25.253C124.749,106.251,107.993,102.351,91.101,131.09z"/>
<path id="path786" fill="#FFFFFF" stroke="#000000" stroke-width="0.0278" d="M82.126,136.611c0,0-0.429,0.512,0.349,0.411
	c4.074-0.53,12.587-16.943,30.262-14.924C112.736,122.099,100.023,116.393,82.126,136.611z"/>
<path id="path790" fill="#FFFFFF" stroke="#000000" stroke-width="0.0278" d="M78.396,139.513c0,0-0.494,0.513,0.288,0.455
	c2.046-0.152,17.089-16.394,26.156-8.782C104.84,131.186,98.941,121.993,78.396,139.513z"/>
<path id="path794" fill="#FFFFFF" stroke="#000000" stroke-width="0.0278" d="M112.536,123.838c0,0-0.59-0.665,0.358-0.854
	c0.949-0.188,60.213-28.525,78.852-22.208C191.746,100.775,179.01,95.438,112.536,123.838z"/>
<path id="path798" fill="#FFFFFF" stroke="#000000" stroke-width="0.0278" d="M96.109,155.411c0,0-0.099-0.885,0.785-0.492
	c0.885,0.393,8.445,0.688,2.357,11.686C99.251,166.605,103.965,154.821,96.109,155.411z"/>
<path id="path802" fill="#FFFFFF" stroke="#000000" stroke-width="0.0278" d="M101.215,154.625c0,0-0.098-0.884,0.786-0.491
	s9.623,1.474,10.605,20.523C112.607,174.657,109.072,154.036,101.215,154.625z"/>
<path id="path806" fill="#FFFFFF" stroke="#000000" stroke-width="0.0278" d="M104.554,153.84c0,0-0.099-0.885,0.785-0.491
	c0.884,0.393,12.962,2.062,24.549,17.97C129.889,171.318,112.41,153.25,104.554,153.84z"/>
<path id="path810" fill="#FFFFFF" stroke="#000000" stroke-width="0.0278" d="M108.298,152.843c0,0-0.215-0.862,0.713-0.591
	c0.928,0.272,10.961-0.66,29.667,16.12C138.678,168.372,116.006,151.215,108.298,152.843z"/>
<path id="path814" fill="#FFFFFF" stroke="#000000" stroke-width="0.0278" d="M113.405,150.683c0,0-0.215-0.863,0.713-0.591
	c0.928,0.271,18.031,2.481,43.414,19.655C157.531,169.747,121.113,149.055,113.405,150.683z"/>
<path id="path818" fill="#FFFFFF" stroke="#000000" stroke-width="0.0278" d="M93.556,145.002c0,0-0.099-0.885,0.785-0.492
	c0.884,0.394,27.104,1.67,42.03,14.828C136.371,159.339,119.235,147.174,93.556,145.002z"/>
<path id="path822" fill="#FFFFFF" stroke="#000000" stroke-width="0.0278" d="M88.646,146.966c0,0-0.099-0.884,0.785-0.491
	c0.885,0.393,12.963,2.062,24.55,17.971C113.981,164.445,96.502,146.376,88.646,146.966z"/>
<path id="path826" fill="#FFFFFF" stroke="#000000" stroke-width="0.0278" d="M118.746,148.419c0,0-0.277-0.845,0.668-0.642
	c0.945,0.202,18.165,1.153,44.737,16.42C164.15,164.198,126.019,147.311,118.746,148.419z"/>
<path id="path830" fill="#FFFFFF" stroke="#000000" stroke-width="0.0278" d="M122.87,147.241c0,0-0.277-0.846,0.668-0.643
	c0.946,0.203,18.166,1.153,44.738,16.421C168.275,163.02,130.438,145.936,122.87,147.241z"/>
<path id="path834" fill="#FFFFFF" stroke="#000000" stroke-width="0.0278" d="M127.583,144.786c0,0-0.277-0.845,0.668-0.642
	c0.946,0.202,22.092,2.331,66.145,19.17C194.396,163.314,135.15,143.481,127.583,144.786z"/>
<path id="path838" d="M72.934,148.144c0,0,2.554-0.196,1.965,0.59c-0.59,0.785-1.768,0.392-1.768,0.392L72.934,148.144z"/>
<path id="path842" d="M88.057,155.018c0,0,2.553-0.196,1.964,0.59c-0.589,0.785-1.768,0.393-1.768,0.393L88.057,155.018z"/>
<path id="path846" d="M83.736,154.821c0,0,2.554-0.196,1.964,0.59c-0.589,0.785-1.767,0.393-1.767,0.393L83.736,154.821z"/>
<path id="path850" d="M36.911,149.019c0,0,2.478,0.649,1.663,1.199c-0.813,0.55-1.799-0.207-1.799-0.207L36.911,149.019z"/>
<path id="path854" d="M37.893,144.305c0,0,2.477,0.649,1.663,1.199c-0.814,0.551-1.8-0.207-1.8-0.207L37.893,144.305z"/>
<path id="path858" d="M34.358,142.145c0,0,2.477,0.649,1.662,1.199c-0.812,0.55-1.799-0.207-1.799-0.207L34.358,142.145z"/>
<path id="path862" fill="#CCCCCC" d="M73.524,178.979c0,0-0.786,0-2.75,0.981c-0.981,0-6.481,1.768-9.23,6.678
	C61.543,186.638,67.631,181.924,73.524,178.979z"/>
<path id="path866" fill="#CCCCCC" d="M116.591,224.467c0.069,0.127,0.097,0.333,0.24,0.341c0.322,0.02,0.928,0.168,0.866-0.145
	c-0.416-2.114-0.846-4.538-2.874-5.425c-0.314-0.138-1.022,0.064-1.059,0.499c-0.062,0.748-0.12,1.411,0.031,2.131
	c0.147,0.697,1.207,0.702,1.657,0.023C115.914,222.712,116.125,223.616,116.591,224.467z"/>
<path id="path870" fill="#CCCCCC" d="M111.152,226.791c0.368,0.693,0.306,1.606,1,1.883c0.364,0.145,1.271-0.334,1.066-0.861
	c-0.394-1.013-0.584-2.112-1.267-3c-0.098-0.129,0.021-0.391-0.059-0.552c-0.291-0.599-0.854-0.96-1.545-0.799
	c-0.548,1.083,0.016,2.127,0.763,2.967C111.178,226.503,111.097,226.688,111.152,226.791z"/>
<path id="path874" fill="#CCCCCC" d="M91.708,224.243c-0.053-0.186-0.071-0.413,0.01-0.571c0.261-0.506,0.65-1.058,0.484-1.56
	c-0.171-0.518-0.719-0.429-1.038-0.149c-0.557,0.488-0.581,1.385-0.921,2.052c-0.097,0.189-0.071,0.471-0.287,0.663
	c-0.233,0.207-0.448,0.955-0.401,1.235c0.025,0.153-0.064,5.019,0.045,4.89c0.304-0.36,1.802-5.14,1.835-5.578
	C91.462,224.866,91.822,224.638,91.708,224.243z"/>
<path id="path878" fill="#CCCCCC" d="M79.12,220.908c1.294-1.228,2.663-2.682,2.446-4.504c-0.057-0.479-0.929-0.22-1.021,0.195
	c-0.394,1.779-1.395,3.086-2.655,4.261c-1.078,1.004-1.992,4.119-2.107,4.369C77.597,222.649,78.706,221.301,79.12,220.908z"/>
<path id="path882" fill="#CCCCCC" d="M72.456,217.979c0.257-0.182,0.108-0.423,0.215-0.586c0.468-0.715,1.106-1.326,1.115-2.181
	c0.002-0.136-0.184-0.288-0.349-0.178c-0.136,0.09-0.304,0.154-0.357,0.218c-0.996,1.202-1.684,2.515-2.393,3.895
	c-0.089,0.176-0.651,2.381-0.497,2.436c0.117,0.041,0.962-2.012,1.064-2.067C71.875,219.179,71.88,218.386,72.456,217.979z"/>
<path id="path886" fill="#CCCCCC" d="M80.67,227.575c0.219-0.427,0.992-1.017,0.937-1.453c-0.058-0.456,0.172-1.164-0.275-0.826
	c-0.617,0.466-2.311,1.128-2.443,3.979C78.875,229.556,80.335,228.233,80.67,227.575z"/>
<path id="path890" fill="#CCCCCC" d="M87.762,219.142c0.197-0.328,0.544-0.096,0.77-0.226c0.318-0.183,0.618-0.457,0.762-0.775
	c0.477-1.055,1.345-1.948,1.415-3.124c-0.732-0.688-1.065,0.312-1.375,0.786c-0.649-0.809-1.14,0.111-1.778,0.366
	c-0.034,0.014-0.139-0.157-0.176-0.144c-0.578,0.216-0.912,0.747-1.401,1.13c-0.084,0.065-0.283-0.022-0.355,0.044
	c-0.319,0.296-0.798,0.456-0.936,0.791c-0.544,1.329-2.086,2.357-3.013,6.061c0.188,0.445,2.215-3.262,2.454-3.604
	c0.411-0.588,0.469,0.815,1.096,0.488c0.024-0.014,0.116,0.104,0.182,0.169c0.096-0.138,0.202-0.25,0.394-0.196
	c0-0.196-0.066-0.47,0.032-0.548c0.607-0.479,0.566-1.004,0.949-1.613C87.005,219.136,87.526,218.783,87.762,219.142z"/>
<path id="path894" fill="#CCCCCC" d="M117.124,245.852c0,0,3.634-10.017,1.474-15.516c0,0,5.598,10.605,3.339,16.104
	c0,0-0.196-5.105-2.161-7.561C119.775,238.879,117.811,245.164,117.124,245.852z"/>
<path id="path898" fill="#CCCCCC" d="M109.857,244.575c0,0,2.651-4.321-1.276-13.354c0,0-0.393,10.016-3.731,15.416
	C104.849,246.637,111.821,236.719,109.857,244.575z"/>
<path id="path902" fill="#CCCCCC" d="M104.947,243.593c0,0-0.098-9.82,0.099-11.293c0,0-1.865,8.15-6.874,12.864
	C98.171,245.164,105.242,239.272,104.947,243.593z"/>
<path id="path906" fill="#CCCCCC" d="M100.234,227.881c0,0,2.945,6.678-1.965,15.712c0,0,3.143-5.99,0.786-9.427
	C99.055,234.166,100.332,232.496,100.234,227.881z"/>
<path id="path910" fill="#CCCCCC" d="M90.806,243.396c0,0-0.49-7.66,0.394-8.74c0,0,0.098-3.143-0.099-3.633
	c0,0,1.964-3.044,2.062,0.589c0,0,0.688,3.829,2.062,6.089c0,0,1.768,2.651,1.67,5.793
	C96.895,243.494,91.985,228.667,90.806,243.396z"/>
<path id="path914" fill="#CCCCCC" d="M89.039,229.845c0,0-3.24,5.303-4.124,14.632c0,0-0.688-3.044,1.179-10.114
	C86.093,234.362,88.155,226.801,89.039,229.845z"/>
<path id="path918" fill="#CCCCCC" d="M78.335,239.566c0,0,2.455-2.651,3.143-5.106c0,0,1.768-7.757-1.375-3.535
	c0,0,0.099,3.929-3.928,7.562C76.174,238.486,78.532,237.308,78.335,239.566z"/>
<path id="path922" fill="#CCCCCC" d="M75.488,237.111c0,0,1.669-8.543,2.062-8.936c0,0,0.884-1.669-0.491-0.099
	c0,0-4.321,9.427-6.285,12.668C70.774,240.745,74.702,236.228,75.488,237.111z"/>
<path id="path926" fill="#CCCCCC" d="M72.64,228.961c0,0,5.695-10.998-5.009,1.67C67.631,230.631,73.033,225.818,72.64,228.961z"/>
<path id="path930" fill="#CCCCCC" d="M65.079,221.793c0,0,2.356-9.23,3.633-9.133c0,0,4.026-4.419,0.786,0.785
	c0,0-2.946,4.714-2.651,9.525C66.846,222.971,66.551,218.258,65.079,221.793z"/>
<path id="path934" fill="#CCCCCC" d="M227.254,216.194c0,0-5.893-4.909-7.119-6.628c0,0,6.627,9.083,6.627,12.52
	C226.762,222.087,227.99,218.404,227.254,216.194z"/>
<path id="path938" fill="#CCCCCC" d="M229.953,205.394c0,0-10.311-7.365-12.029-11.048c0,0,13.012,14.483,13.012,16.693
	C230.936,211.039,231.182,206.62,229.953,205.394z"/>
<path id="path942" fill="#CCCCCC" d="M238.301,129.78c0,0-5.893-3.928-6.629-2.946c0,0,5.156,3.191,6.383,7.364
	C238.055,134.199,237.318,129.78,238.301,129.78z"/>
<path id="path946" fill="#CCCCCC" d="M242.475,169.306l-8.594-5.893c0,0,9.33,8.348,9.576,10.312L242.475,169.306z"/>
<path id="path950" stroke="#000000" stroke-width="0.2781" d="M50.619,158.258l10.802,2.332"/>
<path id="path954" stroke="#000000" stroke-width="0.2781" d="M75.292,237.799c0,0-0.246-1.719-4.665,3.437"/>
<path id="path958" stroke="#000000" stroke-width="0.2781" d="M77.992,240.253c0,0,0.981-3.191-2.21-0.98"/>
<path id="path962" stroke="#000000" stroke-width="0.2781" d="M104.505,244.427c0,0,0.736-5.401-4.909,0.981"/>
</svg>
