<?xml version="1.0" encoding="utf-8"?>
<!-- Generator: Adobe Illustrator 16.0.4, SVG Export Plug-In . SVG Version: 6.00 Build 0)  -->
<!DOCTYPE svg PUBLIC "-//W3C//DTD SVG 1.1//EN" "http://www.w3.org/Graphics/SVG/1.1/DTD/svg11.dtd">
<svg version="1.1" id="Layer_1" xmlns="http://www.w3.org/2000/svg" xmlns:xlink="http://www.w3.org/1999/xlink" x="0px" y="0px"
	 width="128px" height="128px" viewBox="0 0 128 128" enable-background="new 0 0 128 128" xml:space="preserve">
<g>
	
		<radialGradient id="SVGID_1_" cx="83.4277" cy="-255.812" r="36.7351" gradientTransform="matrix(1.6332 0 0 1.6332 -72.2568 481.8027)" gradientUnits="userSpaceOnUse">
		<stop  offset="0" style="stop-color:#1E76BA"/>
		<stop  offset="0.4454" style="stop-color:#1D75B8"/>
		<stop  offset="0.6058" style="stop-color:#1C71B1"/>
		<stop  offset="0.7201" style="stop-color:#186AA6"/>
		<stop  offset="0.8126" style="stop-color:#136095"/>
		<stop  offset="0.8918" style="stop-color:#0D537F"/>
		<stop  offset="0.9607" style="stop-color:#054364"/>
		<stop  offset="1" style="stop-color:#003851"/>
	</radialGradient>
	<polygon fill="url(#SVGID_1_)" stroke="#1E76BA" stroke-width="1.9598" points="75.935,4.005 63.997,13.008 52.064,4.005 
		44.479,16.884 30.015,13.143 27.939,27.944 13.136,30.018 16.881,44.489 4,52.069 13,64.003 4,75.937 16.881,83.519 13.136,97.989 
		27.939,100.058 30.015,114.868 44.479,111.119 52.064,123.995 63.997,114.998 75.935,123.995 83.517,111.119 97.982,114.868 
		100.058,100.058 114.866,97.989 111.115,83.519 124,75.937 114.995,64.003 124,52.069 111.115,44.489 114.866,30.018 
		100.058,27.944 97.982,13.143 83.517,16.884 	"/>
	<path opacity="0.4" fill="#FFFFFF" d="M63.082,106.849c-11.828,0-27.959-5.5-38.4-17.497c8.333,12.29,22.422,20.375,38.4,20.375
		c17.419,0,32.601-9.618,40.543-23.829C94.585,98.503,79.306,106.849,63.082,106.849z"/>
	<path opacity="0.7" fill="#FFFFFF" d="M64.143,21.044c14.912,0,29,7.413,37.462,18.677C94.152,26.987,80.172,18.41,64.143,18.41
		c-16.049,0-30.024,8.601-37.473,21.333C35.133,28.464,49.229,21.044,64.143,21.044z"/>
	<g opacity="0.47">
		<linearGradient id="SVGID_2_" gradientUnits="userSpaceOnUse" x1="31.0034" y1="27.2104" x2="89.9727" y2="86.1798">
			<stop  offset="0" style="stop-color:#FFFFFF"/>
			<stop  offset="0.2654" style="stop-color:#AEAEAE"/>
			<stop  offset="0.5307" style="stop-color:#636363"/>
			<stop  offset="0.7488" style="stop-color:#2E2E2E"/>
			<stop  offset="0.9113" style="stop-color:#0C0C0C"/>
			<stop  offset="1" style="stop-color:#000000"/>
		</linearGradient>
		<path fill="url(#SVGID_2_)" d="M63.419,18.283c-23.407,0-43.482,21.342-43.482,44.75c0,5.517,1.084,10.774,3,15.608
			c15.684-0.553,25.021-1.678,41.275-11.154c11.723-6.843,28.734-12.198,43.852-7.546C107.065,37.417,86.198,18.283,63.419,18.283z"
			/>
	</g>
	<path opacity="0.28" d="M44.053,50.899c0.081-6.204,0.768-11.134,3.735-14.788c2.976-3.655,7.821-5.61,15.98-5.61
		c15.815,0,19.378,7.396,19.378,16.402c0,8.161-2.967,13.346-7.475,17.848l-9.347,9.098c-1.367,1.359-3.318,3.143-3.913,4.925
		h20.734v11.9H43.54c0-8.414,2.125-15.892,9.013-23.03l10.539-10.709c3.061-3.062,4.25-5.358,4.25-9.862
		c0-5.097-1.614-6.714-4.077-6.714c-2.216,0-4.422,1.191-4.422,7.99v2.549H44.053z"/>
	<path fill="#FFFFFF" d="M43.202,50.051c0.081-6.206,0.768-11.137,3.737-14.791c2.976-3.655,7.821-5.61,15.98-5.61
		c15.812,0,19.377,7.396,19.377,16.402c0,8.158-2.968,13.347-7.474,17.849l-9.351,9.094c-1.363,1.36-3.316,3.143-3.909,4.929h20.733
		v11.9H42.688c0-8.415,2.125-15.893,9.013-23.03l10.54-10.711c3.059-3.062,4.249-5.357,4.249-9.861c0-5.097-1.612-6.714-4.077-6.714
		c-2.215,0-4.422,1.191-4.422,7.991v2.551H43.202z"/>
</g>
</svg>
