<?xml version="1.0" encoding="utf-8"?>
<!DOCTYPE svg PUBLIC "-//W3C//DTD SVG 1.1//EN" "http://www.w3.org/Graphics/SVG/1.1/DTD/svg11.dtd">
<svg version="1.1" id="Layer_1" xmlns="http://www.w3.org/2000/svg" xmlns:xlink="http://www.w3.org/1999/xlink" x="0px" y="0px"
	 width="200px" height="200px" viewBox="0 0 200 200" enable-background="new 0 0 200 200" xml:space="preserve">
<rect fill="#996932" width="200" height="200"/>
<path fill="#663C0B" d="M90.755,59.625c5.211,1.711,8.668,2.572,10.382,2.572c2.202,0,5.803-0.861,10.788-2.572
	c4.992-1.711,9.326-2.564,12.992-2.564c6.021,0,11.375,1.621,16.076,4.852c2.639,1.871,5.26,4.385,7.85,7.584
	c-3.907,3.332-6.772,6.295-8.584,8.893c-3.282,4.709-4.92,9.912-4.92,15.6c0,6.229,1.738,11.839,5.211,16.843
	c3.476,5.002,7.441,8.166,11.894,9.483c-1.863,6.039-4.945,12.345-9.246,18.916c-6.512,9.854-12.967,14.779-19.381,14.779
	c-2.539,0-6.055-0.844-10.529-2.529c-4.477-1.688-8.26-2.53-11.342-2.53c-3.08,0-6.662,0.844-10.754,2.53
	c-4.084,1.687-7.4,2.529-9.947,2.529c-7.682,0-15.215-6.539-22.604-19.641c-7.391-12.943-11.082-25.645-11.082-38.103
	c0-11.566,2.822-20.994,8.477-28.283c5.652-7.281,12.783-10.924,21.393-10.924C81.103,57.061,85.536,57.915,90.755,59.625z
	 M124.04,30.415c0.043,0.492,0.067,0.977,0.067,1.471c0,3.131-0.735,6.555-2.196,10.271c-1.47,3.723-3.791,7.172-6.974,10.354
	c-2.737,2.689-5.461,4.502-8.149,5.428c-1.711,0.543-4.31,0.953-7.783,1.244c0.102-7.432,2.047-13.869,5.838-19.297
	c3.791-5.438,10.07-9.152,18.83-11.156C123.866,29.364,123.991,29.922,124.04,30.415z"/>
</svg>
